<?xml version="1.0" encoding="utf-8"?>
<!-- Generator: Adobe Illustrator 25.0.0, SVG Export Plug-In . SVG Version: 6.00 Build 0)  -->
<svg version="1.1" xmlns="http://www.w3.org/2000/svg" xmlns:xlink="http://www.w3.org/1999/xlink" x="0px" y="0px"
	 viewBox="0 0 4800 3300" style="enable-background:new 0 0 4800 3300;" xml:space="preserve">
<style type="text/css">
	.st0{opacity:0.4;fill:url(#SVGID_1_);}
	.st1{opacity:0.4;fill:url(#SVGID_2_);}
	.st2{fill:url(#SVGID_3_);}
	.st3{fill:url(#SVGID_4_);}
	.st4{fill:url(#SVGID_5_);}
	.st5{fill:url(#SVGID_6_);}
	.st6{fill:url(#SVGID_7_);}
	.st7{fill:url(#SVGID_8_);}
	.st8{fill:#FFFFFF;}
	.st9{fill:url(#SVGID_9_);}
	.st10{fill:url(#SVGID_10_);}
	.st11{fill:url(#SVGID_11_);}
	.st12{fill:url(#SVGID_12_);}
	.st13{fill:url(#SVGID_13_);}
	.st14{fill:url(#SVGID_14_);}
	.st15{fill:url(#SVGID_15_);}
	.st16{fill:url(#SVGID_16_);}
	.st17{fill:url(#SVGID_17_);}
	.st18{fill:url(#SVGID_18_);}
	.st19{fill:url(#SVGID_19_);}
	.st20{fill:url(#SVGID_20_);}
	.st21{fill:url(#SVGID_21_);}
	.st22{fill:url(#SVGID_22_);}
	.st23{fill:url(#SVGID_23_);}
	.st24{fill:url(#SVGID_24_);}
	.st25{fill:url(#SVGID_25_);}
	.st26{fill:url(#SVGID_26_);}
	.st27{fill:url(#SVGID_27_);}
	.st28{fill:url(#SVGID_28_);}
	.st29{fill:url(#SVGID_29_);}
	.st30{fill:url(#SVGID_30_);}
	.st31{fill:url(#SVGID_31_);}
	.st32{fill:url(#SVGID_32_);}
	.st33{fill:url(#SVGID_33_);}
	.st34{fill:url(#SVGID_34_);}
	.st35{fill:url(#SVGID_35_);}
	.st36{fill:#EFBC90;}
	.st37{fill:#F4CAAB;}
	.st38{fill:#03053E;}
	.st39{fill:url(#SVGID_36_);}
	.st40{fill:url(#SVGID_37_);}
	.st41{fill:url(#SVGID_38_);}
	.st42{fill:#DBC6AF;}
	.st43{fill:url(#SVGID_39_);}
	.st44{fill:url(#SVGID_40_);}
	.st45{fill:url(#SVGID_41_);}
	.st46{fill:url(#SVGID_42_);}
	.st47{fill:url(#SVGID_43_);}
	.st48{fill:url(#SVGID_44_);}
	.st49{fill:url(#SVGID_45_);}
	.st50{fill:url(#SVGID_46_);}
</style>
<g id="Ñëîé_2">
</g>
<g id="Ñëîé_1">
	<g>
		<linearGradient id="SVGID_1_" gradientUnits="userSpaceOnUse" x1="3042.1069" y1="764.3683" x2="3915.5527" y2="764.3683">
			<stop  offset="0" style="stop-color:#FFE2E4"/>
			<stop  offset="1" style="stop-color:#A4B8EA"/>
		</linearGradient>
		<circle class="st0" cx="3478.8" cy="764.4" r="436.7"/>
		<linearGradient id="SVGID_2_" gradientUnits="userSpaceOnUse" x1="599.0378" y1="1762.2135" x2="4231.7275" y2="1762.2135">
			<stop  offset="0" style="stop-color:#FFE2E4"/>
			<stop  offset="1" style="stop-color:#A4B8EA"/>
		</linearGradient>
		<path class="st1" d="M3234,1243.4c-0.9,0-1.8,0-2.7,0c-150,0.4-289.4-82.6-363.6-219.1c-204.1-375.6-603.1-630.7-1061.9-630.7
			C1139.3,393.6,599,931.9,599,1595.9s540.3,1202.3,1206.8,1202.3c114.6,0,225.5-15.9,330.5-45.7c137.3-38.9,283.6-1.9,388.6,98.5
			c180.8,172.8,431.7,279.8,709,279.8c551,0,997.7-422.5,997.7-943.7S3785,1243.4,3234,1243.4z"/>
		<linearGradient id="SVGID_3_" gradientUnits="userSpaceOnUse" x1="588.4966" y1="1638.881" x2="1520.4004" y2="1815.7849">
			<stop  offset="0" style="stop-color:#FFE2E4"/>
			<stop  offset="1" style="stop-color:#A4B8EA"/>
		</linearGradient>
		<path class="st2" d="M575.1,1712.4c-79.9,318.4,571.7,494.7,568.8,557.4c-2.9,62.7-337.8,9.3-275.7,181.6
			c57.5,159.6,579.8,239.2,969.1,72.9c11.3-4.8,299-468.2,109.1-751.7c-189.9-283.4-265.7,190.4-357.7,175
			c-92.1-15.4,130.1-592.9-54.3-724.2c-191.2-136.1-265.7,281.1-355.2,213.7c-84.7-63.9-110.1-661-352.1-591.9
			c-8.8,2.5-17.8,5.9-27.2,10.2l-0.1,0l0,0c-4.9,2.3-10,4.8-15.1,7.6c-281.7,155,223.7,800.1,102.9,820.2
			C766.8,1703.3,615.5,1551,575.1,1712.4z"/>
		<linearGradient id="SVGID_4_" gradientUnits="userSpaceOnUse" x1="941.0167" y1="1801.1151" x2="1897.1873" y2="2277.0942">
			<stop  offset="0" style="stop-color:#FFE2E4"/>
			<stop  offset="1" style="stop-color:#A4B8EA"/>
		</linearGradient>
		<path class="st3" d="M1590.9,2615.8c0,0-122.7-546-279.5-862.2s-323.9-420.5-323.9-420.5s79,141.7,129.2,329.4
			c50.2,187.7,63.1,385.3,141.5,569C1376.7,2509.3,1590.9,2615.8,1590.9,2615.8z"/>
		<linearGradient id="SVGID_5_" gradientUnits="userSpaceOnUse" x1="1091.3219" y1="2062.4304" x2="1638.3387" y2="2763.2178">
			<stop  offset="0" style="stop-color:#FFE2E4"/>
			<stop  offset="1" style="stop-color:#A4B8EA"/>
		</linearGradient>
		<path class="st4" d="M1481.7,2602.7c0,0-125.2-324.6-250.4-504.8c-125.2-180.2-237.4-229.1-237.4-229.1s61.5,80,109.4,190.8
			c47.9,110.8,73.9,231.2,138.8,337C1340.3,2556.7,1481.7,2602.7,1481.7,2602.7z"/>
		<linearGradient id="SVGID_6_" gradientUnits="userSpaceOnUse" x1="3823.8757" y1="1238.1484" x2="3667.5696" y2="2160.6116">
			<stop  offset="0" style="stop-color:#FFE2E4"/>
			<stop  offset="1" style="stop-color:#A4B8EA"/>
		</linearGradient>
		<path class="st5" d="M3383.9,2539.9c60.4-7.1,169.4-37,209.1-94.3c36.7-52.9-11.4-122.7,15.4-174.3
			c26.8-51.7,183.1-84.3,225.9-143.9c50.8-70.7-64.3-134.3-10.3-182.7s236.1-99.1,252.4-159.2c16.3-60-56.3-61.1,9.1-171.2
			c55.4-93.2,129.6-215.4,64.9-270.3c-68.9-58.6-157,36.3-203.9,111.4c-60.4,96.7-115.6-10.2-182.3,33.3
			c-60.3,39.3-61.1,267.9-107.4,311.4c-46.3,43.5-131.8,6-196.3,82.1s20.7,202.1-13.2,259.8s-124.5,31.5-173.1,113.4
			C3225.6,2337.1,3383.9,2539.9,3383.9,2539.9z"/>
		<linearGradient id="SVGID_7_" gradientUnits="userSpaceOnUse" x1="3529.2446" y1="2384.2185" x2="4099.3594" y2="2234.3081">
			<stop  offset="0" style="stop-color:#FFE2E4"/>
			<stop  offset="1" style="stop-color:#A4B8EA"/>
		</linearGradient>
		<path class="st6" d="M3956.9,2370.4c-6.3,154.2-323.6,147.2-330.7,175.8c-7,28.7,151.1,49.1,100.2,118.5
			c-47.2,64.3-293.4,30.8-446.9-95.9c-4.4-3.7-72.7-250.9,50.7-353.6c123.3-102.6,94.5,121.2,138.1,126.5
			c43.6,5.3,20.1-284.7,120.8-319.5c104.3-36,82.5,162.1,131.8,143.6c46.7-17.5,137.5-283.5,237.5-220.2c3.6,2.3,7.3,5,10.9,8.2l0,0
			l0,0c1.9,1.7,3.9,3.5,5.8,5.5c106.5,107.3-207.2,331.2-155.4,356.3C3871.6,2340.9,3960.1,2292.3,3956.9,2370.4z"/>
		<g>
			<linearGradient id="SVGID_8_" gradientUnits="userSpaceOnUse" x1="2194.3442" y1="512.0469" x2="3310.2756" y2="1627.9781">
				<stop  offset="0" style="stop-color:#FFE2E4"/>
				<stop  offset="1" style="stop-color:#A4B8EA"/>
			</linearGradient>
			<circle class="st7" cx="2469.9" cy="787.6" r="253.2"/>
			<g>
				<path class="st8" d="M2570.2,627l-273.8,84.7c-14.9,4.6-23.2,20.4-18.6,35.3l56.4,182.5c4.6,14.9,20.4,23.2,35.3,18.6l84.7-26.2
					l69.2,38.7l35.3-71l84.7-26.2c14.9-4.6,23.2-20.4,18.6-35.3l-56.4-182.5C2600.9,630.8,2585.1,622.4,2570.2,627z"/>
				<g>
					
						<linearGradient id="SVGID_9_" gradientUnits="userSpaceOnUse" x1="3106.7991" y1="-202.0496" x2="3259.1152" y2="-202.0496" gradientTransform="matrix(0.9554 -0.2955 0.2955 0.9554 -509.6147 1926.9698)">
						<stop  offset="0" style="stop-color:#FE958F"/>
						<stop  offset="1" style="stop-color:#F77C77"/>
					</linearGradient>
					<path class="st9" d="M2501.1,716c-0.5,0-0.9-0.1-1.4-0.1l0,0c-21.2-0.7-37.4,20.1-39,41.9c-13.6-17.1-38.8-25.1-55.8-12.6l0,0
						c-0.4,0.3-0.7,0.6-1.1,0.8c-20.5,16.2-19.2,49.5,2.1,66.1c23.6,18.5,85.7,45.5,85.7,45.5s36-57.4,45-86
						C2544.8,746,2527.1,717.8,2501.1,716z"/>
				</g>
			</g>
		</g>
		<g>
			<linearGradient id="SVGID_10_" gradientUnits="userSpaceOnUse" x1="2662.7976" y1="118.4396" x2="3313.0349" y2="768.6768">
				<stop  offset="0" style="stop-color:#FFE2E4"/>
				<stop  offset="1" style="stop-color:#A4B8EA"/>
			</linearGradient>
			<circle class="st10" cx="2851" cy="306.7" r="169.5"/>
			<g>
				<path class="st8" d="M2939.4,224.7l-176.8-0.3c-9.6,0-17.4,7.8-17.4,17.4l-0.2,117.8c0,9.6,7.8,17.4,17.4,17.4l54.7,0.1
					l33.7,35.5l33.8-35.4l54.7,0.1c9.6,0,17.4-7.8,17.4-17.4l0.2-117.8C2956.8,232.5,2949.1,224.7,2939.4,224.7z"/>
				<g>
					
						<linearGradient id="SVGID_11_" gradientUnits="userSpaceOnUse" x1="2538.2368" y1="-191.1595" x2="2748.231" y2="-184.4754" gradientTransform="matrix(0.9999 -1.670000e-02 1.670000e-02 0.9999 208.6624 530.9173)">
						<stop  offset="0" style="stop-color:#FFE2E4"/>
						<stop  offset="1" style="stop-color:#A4B8EA"/>
					</linearGradient>
					<path class="st11" d="M2909.1,270.1l-0.1,58c0,6.7-5.4,12.1-12.1,12.1l-8.3,0l-24.7,0l-24.3,0l-34.9-0.1
						c-4.6,0-8.6-2.6-10.6-6.4c-0.9-1.7-1.4-3.7-1.4-5.7l0.1-58.1c0-6.7,5.4-12.1,12.1-12.1l92.2,0.2
						C2903.8,258,2909.1,263.4,2909.1,270.1z"/>
					
						<linearGradient id="SVGID_12_" gradientUnits="userSpaceOnUse" x1="2402.2539" y1="-179.6557" x2="2807.468" y2="-166.7576" gradientTransform="matrix(0.9999 -1.670000e-02 1.670000e-02 0.9999 208.6624 530.9173)">
						<stop  offset="0" style="stop-color:#7A8DD6"/>
						<stop  offset="1" style="stop-color:#445AC0"/>
					</linearGradient>
					<path class="st12" d="M2888.6,340.2l-20.4-31.6c-1.8-2.8-6.3-2.8-8.1,0L2852,321v0v0l-19-29.5c-2.6-3.9-8.9-4-11.5,0
						l-27.4,42.1c2,3.8,6,6.4,10.6,6.4l34.9,0.1l0,0l16.2,0l8.1,0l0,0l0,0L2888.6,340.2z"/>
					
						<linearGradient id="SVGID_13_" gradientUnits="userSpaceOnUse" x1="2538.811" y1="-209.2426" x2="2748.8091" y2="-202.5583" gradientTransform="matrix(0.9999 -1.670000e-02 1.670000e-02 0.9999 208.6624 530.9173)">
						<stop  offset="0" style="stop-color:#7A8DD6"/>
						<stop  offset="1" style="stop-color:#445AC0"/>
					</linearGradient>
					<path class="st13" d="M2889.9,281.3c0.1,4.3-3.4,7.9-7.7,7.9c-4.3,0.1-7.9-3.4-7.9-7.7c-0.1-4.3,3.4-7.9,7.7-7.9
						C2886.3,273.5,2889.8,277,2889.9,281.3z"/>
				</g>
			</g>
		</g>
		<g>
			<g>
				<g>
					<g>
						<linearGradient id="SVGID_14_" gradientUnits="userSpaceOnUse" x1="1385.7115" y1="1929.7372" x2="3595.9202" y2="1929.7372">
							<stop  offset="0" style="stop-color:#7A8FD8"/>
							<stop  offset="1" style="stop-color:#435AC2"/>
						</linearGradient>
						<path class="st14" d="M3388.6,1160.3H1526.4c-77.7,0-140.7,63-140.7,140.7v1257.4c0,77.7,63,140.7,140.7,140.7h1862.2
							c77.7,0,140.7-63,140.7-140.7V1301C3529.3,1223.3,3466.3,1160.3,3388.6,1160.3z"/>
						<linearGradient id="SVGID_15_" gradientUnits="userSpaceOnUse" x1="2457.5105" y1="3163.5393" x2="2457.5105" y2="1219.7004">
							<stop  offset="0" style="stop-color:#FFFFFF"/>
							<stop  offset="1" style="stop-color:#E7ECF9"/>
						</linearGradient>
						<path class="st15" d="M3443.4,1360.9v1148.4c0,10.2-1.2,20.1-3.5,29.6c-13.4,56.7-64.8,98.9-126,98.9H1601
							c-71.5,0-129.4-57.5-129.4-128.5V1360.9c0-71,57.9-128.5,129.4-128.5H3314C3385.4,1232.4,3443.4,1289.9,3443.4,1360.9z"/>
						<linearGradient id="SVGID_16_" gradientUnits="userSpaceOnUse" x1="1142.2249" y1="2607.0923" x2="3772.7844" y2="2607.0923">
							<stop  offset="0" style="stop-color:#7A8FD8"/>
							<stop  offset="1" style="stop-color:#435AC2"/>
						</linearGradient>
						<path class="st16" d="M1142.2,2515v43.4c0,77.7,77.3,140.7,172.7,140.7h2285.2c95.4,0,172.7-63,172.7-140.7V2515H1142.2z"/>
					</g>
				</g>
				<linearGradient id="SVGID_17_" gradientUnits="userSpaceOnUse" x1="2142.1982" y1="2548.1824" x2="2772.8108" y2="2548.1824">
					<stop  offset="0" style="stop-color:#435AC2"/>
					<stop  offset="1" style="stop-color:#0F24A4"/>
				</linearGradient>
				<path class="st17" d="M2142.2,2515v15.6c0,28,18.5,50.7,41.4,50.7h547.8c22.9,0,41.4-22.7,41.4-50.7V2515H2142.2z"/>
			</g>
			<g>
				<path class="st8" d="M2622.7,1263.7h-913c-57.9,0-104.8,46.9-104.8,104.8v978.9c0,57.9,46.9,104.8,104.8,104.8h913
					c57.9,0,104.8-46.9,104.8-104.8v-978.9C2727.5,1310.6,2680.6,1263.7,2622.7,1263.7z"/>
				<g>
					<g>
						
							<linearGradient id="SVGID_18_" gradientUnits="userSpaceOnUse" x1="1867.9799" y1="1289.4164" x2="2335.8706" y2="1289.4164" gradientTransform="matrix(1 0 0 -0.2501 0 1710.446)">
							<stop  offset="0" style="stop-color:#FFE2E4"/>
							<stop  offset="1" style="stop-color:#A4B8EA"/>
						</linearGradient>
						<rect x="1986.8" y="1370.5" class="st18" width="347.7" height="34.9"/>
						
							<linearGradient id="SVGID_19_" gradientUnits="userSpaceOnUse" x1="1780.9246" y1="977.2065" x2="2591.4949" y2="977.2065" gradientTransform="matrix(1 0 0 -0.2501 0 1710.446)">
							<stop  offset="0" style="stop-color:#FFE2E4"/>
							<stop  offset="1" style="stop-color:#A4B8EA"/>
						</linearGradient>
						<rect x="1986.8" y="1448.6" class="st19" width="602.4" height="34.9"/>
						<linearGradient id="SVGID_20_" gradientUnits="userSpaceOnUse" x1="1767.9454" y1="1421.1101" x2="2742.6775" y2="1421.1101">
							<stop  offset="0" style="stop-color:#FFE2E4"/>
							<stop  offset="1" style="stop-color:#A4B8EA"/>
						</linearGradient>
						<circle class="st20" cx="1845" cy="1421.1" r="86.6"/>
					</g>
					<g>
						<linearGradient id="SVGID_21_" gradientUnits="userSpaceOnUse" x1="1698.6617" y1="1914.0438" x2="2648.959" y2="1914.0438">
							<stop  offset="0" style="stop-color:#FFE2E4"/>
							<stop  offset="1" style="stop-color:#A4B8EA"/>
						</linearGradient>
						<rect x="1698.7" y="1572.7" class="st21" width="950.3" height="682.6"/>
						<linearGradient id="SVGID_22_" gradientUnits="userSpaceOnUse" x1="2416.2129" y1="1730.897" x2="3095.1353" y2="1730.897">
							<stop  offset="0" style="stop-color:#FFE2E4"/>
							<stop  offset="1" style="stop-color:#A4B8EA"/>
						</linearGradient>
						<circle class="st22" cx="2469.9" cy="1730.9" r="60.3"/>
						<linearGradient id="SVGID_23_" gradientUnits="userSpaceOnUse" x1="1727.524" y1="2051.0518" x2="2281.0479" y2="2051.0518">
							<stop  offset="0" style="stop-color:#7A8FD8"/>
							<stop  offset="1" style="stop-color:#435AC2"/>
						</linearGradient>
						<polygon class="st23" points="2004.3,1846.8 1727.5,2255.3 2281,2255.3 						"/>
						<linearGradient id="SVGID_24_" gradientUnits="userSpaceOnUse" x1="2110.5718" y1="2102.5996" x2="2524.4287" y2="2102.5996">
							<stop  offset="0" style="stop-color:#7A8FD8"/>
							<stop  offset="1" style="stop-color:#435AC2"/>
						</linearGradient>
						<polygon class="st24" points="2317.5,1949.9 2110.6,2255.3 2524.4,2255.3 						"/>
					</g>
				</g>
			</g>
			<g>
				<path class="st8" d="M3256.6,1283.3h-418.4c-34.2,0-62,27.8-62,62v377.8c0,34.2,27.8,62,62,62h418.4c34.2,0,62-27.8,62-62
					v-377.8C3318.6,1311,3290.8,1283.3,3256.6,1283.3z"/>
				<g>
					<g>
						
							<linearGradient id="SVGID_25_" gradientUnits="userSpaceOnUse" x1="2697.3245" y1="518.2015" x2="3502.2317" y2="518.2015" gradientTransform="matrix(1 0 0 -0.2501 0 1710.446)">
							<stop  offset="0" style="stop-color:#FFE2E4"/>
							<stop  offset="1" style="stop-color:#A4B8EA"/>
						</linearGradient>
						<rect x="2997.7" y="1564.5" class="st25" width="277.4" height="32.6"/>
						
							<linearGradient id="SVGID_26_" gradientUnits="userSpaceOnUse" x1="2697.3245" y1="253.5674" x2="3502.2317" y2="253.5674" gradientTransform="matrix(1 0 0 -0.2501 0 1710.446)">
							<stop  offset="0" style="stop-color:#FFE2E4"/>
							<stop  offset="1" style="stop-color:#A4B8EA"/>
						</linearGradient>
						<rect x="2997.7" y="1630.7" class="st26" width="277.4" height="32.6"/>
						<linearGradient id="SVGID_27_" gradientUnits="userSpaceOnUse" x1="2886.749" y1="1553.3492" x2="2886.749" y2="1702.2004">
							<stop  offset="0" style="stop-color:#7A8FD8"/>
							<stop  offset="1" style="stop-color:#435AC2"/>
						</linearGradient>
						<path class="st27" d="M2942.7,1553.2h-111.9c-6.1,0-11,4.9-11,11v74.6c0,6.1,4.9,11,11,11h34.6l21.3,22.4l21.3-22.4h34.6
							c6.1,0,11-4.9,11-11v-74.6C2953.7,1558.1,2948.8,1553.2,2942.7,1553.2z"/>
					</g>
					<g>
						
							<linearGradient id="SVGID_28_" gradientUnits="userSpaceOnUse" x1="2697.3235" y1="1238.4103" x2="3502.2307" y2="1238.4103" gradientTransform="matrix(1 0 0 -0.2501 0 1710.446)">
							<stop  offset="0" style="stop-color:#FFE2E4"/>
							<stop  offset="1" style="stop-color:#A4B8EA"/>
						</linearGradient>
						<rect x="2993.6" y="1384.4" class="st28" width="277.4" height="32.6"/>
						
							<linearGradient id="SVGID_29_" gradientUnits="userSpaceOnUse" x1="2697.3235" y1="973.7761" x2="3502.2307" y2="973.7761" gradientTransform="matrix(1 0 0 -0.2501 0 1710.446)">
							<stop  offset="0" style="stop-color:#FFE2E4"/>
							<stop  offset="1" style="stop-color:#A4B8EA"/>
						</linearGradient>
						<rect x="2993.6" y="1450.6" class="st29" width="277.4" height="32.6"/>
						<g>
							<linearGradient id="SVGID_30_" gradientUnits="userSpaceOnUse" x1="2819.6165" y1="1432.5533" x2="2954.134" y2="1432.5533">
								<stop  offset="0" style="stop-color:#FE958F"/>
								<stop  offset="1" style="stop-color:#F77C77"/>
							</linearGradient>
							<path class="st30" d="M2931.9,1375c-0.4-0.1-0.8-0.3-1.2-0.4h0c-17.7-6.1-36.8,7.2-43.8,25.2c-7-18-26.1-31.3-43.8-25.2h0
								c-0.4,0.1-0.8,0.3-1.2,0.4c-21.5,8.3-29.1,36.7-15.4,56.3c15.1,21.7,60.4,60.8,60.4,60.8s45.3-39,60.4-60.8
								C2960.9,1411.7,2953.4,1383.3,2931.9,1375z"/>
						</g>
					</g>
				</g>
			</g>
		</g>
		<g>
			<g>
				<linearGradient id="SVGID_31_" gradientUnits="userSpaceOnUse" x1="3264.4475" y1="769.3252" x2="3658.5242" y2="769.3252">
					<stop  offset="0" style="stop-color:#7A8DD6"/>
					<stop  offset="1" style="stop-color:#445AC0"/>
				</linearGradient>
				<path class="st31" d="M3642,994.3c-2.8,0-5.7-0.7-8.3-2.2l-361-208.4c-5.1-3-8.3-8.4-8.3-14.3s3.2-11.4,8.3-14.3l361-208.4
					c7.9-4.6,18-1.9,22.6,6.1c4.6,7.9,1.9,18-6.1,22.6l-336.1,194.1l336.1,194.1c7.9,4.6,10.6,14.7,6.1,22.6
					C3653.2,991.3,3647.7,994.3,3642,994.3z"/>
			</g>
			<g>
				<g>
					<linearGradient id="SVGID_32_" gradientUnits="userSpaceOnUse" x1="3623.606" y1="706.0302" x2="3623.606" y2="479.0062">
						<stop  offset="0" style="stop-color:#7A8DD6"/>
						<stop  offset="1" style="stop-color:#445AC0"/>
					</linearGradient>
					<path class="st32" d="M3720.2,575.7c0,42.3-27.1,78.2-64.9,91.3c-1.6,0.5-3.1,1-4.7,1.5c-2.8,0.8-5.7,1.5-8.6,2.1
						c-2.4,0.5-4.9,0.8-7.3,1.1c-0.3,0-0.5,0.1-0.8,0.1c-3.4,0.4-6.8,0.5-10.2,0.5c-0.6,0-1.3,0-1.9,0c-11-0.2-21.5-2.3-31.3-5.8
						c-2.4-0.9-4.7-1.8-7-2.9c-1-0.4-1.9-0.9-2.8-1.4l-1.6-0.8c-4.3-2.2-8.4-4.8-12.3-7.6c-1.6-1.2-3.2-2.4-4.7-3.7
						c-21.4-17.7-35-44.5-35-74.4c0-53.4,43.3-96.6,96.6-96.6C3677,479.1,3720.2,522.4,3720.2,575.7z"/>
				</g>
			</g>
			<g>
				<g>
					<linearGradient id="SVGID_33_" gradientUnits="userSpaceOnUse" x1="3623.606" y1="1083.3029" x2="3623.606" y2="856.2791">
						<stop  offset="0" style="stop-color:#7A8DD6"/>
						<stop  offset="1" style="stop-color:#445AC0"/>
					</linearGradient>
					<path class="st33" d="M3720.2,953c0,42.3-27.1,78.2-64.9,91.3c-1.6,0.5-3.1,1-4.7,1.5c-2.8,0.8-5.7,1.5-8.6,2.1
						c-2.4,0.5-4.9,0.8-7.3,1.1c-0.3,0-0.5,0.1-0.8,0.1c-3.4,0.4-6.8,0.5-10.2,0.5c-0.6,0-1.3,0-1.9,0c-11-0.2-21.5-2.3-31.3-5.8
						c-2.4-0.9-4.7-1.8-7-2.9c-1-0.4-1.9-0.9-2.8-1.4l-1.6-0.8c-4.3-2.2-8.4-4.8-12.3-7.6c-1.6-1.2-3.2-2.4-4.7-3.7
						c-21.4-17.7-35-44.5-35-74.4c0-53.4,43.3-96.6,96.6-96.6C3677,856.4,3720.2,899.6,3720.2,953z"/>
				</g>
			</g>
			<g>
				<g>
					<linearGradient id="SVGID_34_" gradientUnits="userSpaceOnUse" x1="3280.7969" y1="915.0596" x2="3280.7969" y2="661.1402">
						<stop  offset="0" style="stop-color:#7A8DD6"/>
						<stop  offset="1" style="stop-color:#445AC0"/>
					</linearGradient>
					<path class="st34" d="M3388.9,769.3c0,47.3-30.4,87.5-72.6,102.1c-1.7,0.6-3.5,1.2-5.3,1.7c-3.2,0.9-6.4,1.7-9.7,2.3
						c-2.7,0.5-5.4,0.9-8.2,1.2c-0.3,0-0.6,0.1-0.9,0.1c-3.8,0.4-7.6,0.6-11.4,0.6c-0.7,0-1.4,0-2.1,0c-12.3-0.2-24.1-2.5-35-6.5
						c-2.6-1-5.2-2-7.8-3.2c-1.1-0.5-2.1-1-3.2-1.5l-1.8-0.9c-4.8-2.5-9.4-5.4-13.8-8.5c-1.8-1.3-3.6-2.7-5.3-4.1
						c-23.9-19.8-39.1-49.7-39.1-83.2c0-59.7,48.4-108.1,108.1-108.1S3388.9,709.6,3388.9,769.3z"/>
				</g>
			</g>
		</g>
		<linearGradient id="SVGID_35_" gradientUnits="userSpaceOnUse" x1="2522.5471" y1="2295.3254" x2="3377.5884" y2="2061.9226">
			<stop  offset="0" style="stop-color:#7A8FD8"/>
			<stop  offset="1" style="stop-color:#435AC2"/>
		</linearGradient>
		<path class="st35" d="M3370.6,2148.3l-330.5-281.2c-6.4-5.4-16.2-0.9-16.2,7.5v106c-221.6,28.3-388.7,157-459,398.2
			c-2.8,9.5,7.6,17.5,16.1,12.5c151.6-88.7,275.7-111.2,442.9-69.3V2437c0,8.4,9.8,12.9,16.2,7.5l330.5-281.2
			C3375.2,2159.3,3375.2,2152.2,3370.6,2148.3z"/>
		<g>
			<g>
				<polygon class="st36" points="1771.3,756.4 1718.8,741.9 1746.4,641.4 1778.5,650.3 				"/>
				<path class="st37" d="M1851.7,615.7c-2.5,43.7-20.5,83.5-47.8,85.6c-25.7,2-60.1-31.5-67.4-77.4c-7.7-48.3,10.6-77.8,48.5-80.2
					C1825.2,541.2,1854.4,567.8,1851.7,615.7z"/>
				<path class="st38" d="M1781,614.1c8.4-15.9,25.2-20.1,37.9-21.5c12.7-1.4,33.2,4.2,35.7-4.9c2.5-9.1-2.7-43-54.5-51.8
					c-46.9-8-76.3,18.3-88,51.9c-10.2,29.4,7,63.2,30.5,58.7C1765.9,641.9,1770.7,633.4,1781,614.1z"/>
				
					<ellipse transform="matrix(0.9896 -0.1435 0.1435 0.9896 -72.1065 260.1004)" class="st37" cx="1766.8" cy="629.8" rx="11.8" ry="14.2"/>
				<path class="st38" d="M1797.9,491.1c7.8,20-3.1,51.7-27.9,61.3c-24.8,9.7-54.2-6.4-62-26.4c-7.8-20,10.5-32.6,35.3-42.3
					C1768.2,474.2,1790.2,471.1,1797.9,491.1z"/>
				<path class="st36" d="M2023,998c-0.5,9.5-15.3,20.5-35.6,22c-18.7,1.4-31.1-9.3-31.2-18.9C1956,979.5,2023.8,983.2,2023,998z"/>
				<path class="st36" d="M2044.9,1103.6l-3.8-0.7l-270.7-50.1l-47.6-8.8l-11.9,102.5l48.4,2.3l234.8,11.1l-95,228.3l-4.5,10.9
					l19.8,9.7l5.8-10.2l144.1-253.2c1.5-2.7,2.6-5.7,3.2-8.9C2070.4,1121.2,2060.3,1106.4,2044.9,1103.6z"/>
				<path class="st36" d="M2071.1,1117.7l-3.4-0.6l-300.3-55.3l-47.6-8.8l-12.4,101.8l48.3,2.9l280.2,16.8l15.4,289.3l0.6,11.8
					l22.2,0.1l0.7-11.8l19-317.2C2094.6,1132.8,2085.1,1120.3,2071.1,1117.7z"/>
				<linearGradient id="SVGID_36_" gradientUnits="userSpaceOnUse" x1="2069.6064" y1="1047.9124" x2="1982.2032" y2="1098.4589">
					<stop  offset="0" style="stop-color:#435AC2"/>
					<stop  offset="1" style="stop-color:#0F24A4"/>
				</linearGradient>
				<path class="st39" d="M1806,1028.9c34.3,55.3,238.3,36.2,267.7,76.8c39.2,54.2-121.9,263.6-121.9,263.6l-53.6-29.9
					c0,0,82.2-148.1,78.8-158.8c-4.2-13.5-228.1,18.5-288.7-32.6c-47-39.7-23.8-119.1-23.8-119.1L1806,1028.9z"/>
				<linearGradient id="SVGID_37_" gradientUnits="userSpaceOnUse" x1="2076.6055" y1="1091.0266" x2="1812.2894" y2="1272.1512">
					<stop  offset="0" style="stop-color:#435AC2"/>
					<stop  offset="1" style="stop-color:#0F24A4"/>
				</linearGradient>
				<path class="st40" d="M1790,1028.9c29.9,68,273.3,42.9,307.8,102.1c27.8,47.8-0.8,290.5-0.8,290.5l-64.4-1.8
					c0,0,0.4-206.6-12.3-220.6c-9.3-10.3-267.6,13.5-332.1-32.6c-55.2-39.5-23.8-137.6-23.8-137.6L1790,1028.9z"/>
				<path class="st36" d="M1778.5,778.4l36.6,208.6l-17.4-14.9l152.7,11.3l13.9,1l-1.2,26.9l-13.9-0.2l-153.1-2
					c-8.4-0.1-15.4-6.1-17.2-14l-0.2-1l-45.9-206.7l-5.1-22.8l46.8-9.3L1778.5,778.4z"/>
				<linearGradient id="SVGID_38_" gradientUnits="userSpaceOnUse" x1="1926.1477" y1="898.0878" x2="1747.129" y2="885.4512">
					<stop  offset="0" style="stop-color:#FFC1C2"/>
					<stop  offset="1" style="stop-color:#FE958F"/>
				</linearGradient>
				<path class="st41" d="M1706.5,783.2c-3.6,49.9,28.7,179.6,79.6,224.2c30.2,26.5,130.9,8.7,130.9,8.7l4.9-39.3
					c0,0-75.3,11.3-92.5-32.4c-17.2-43.8-28.1-163.3-53.5-181.5C1753.4,746.9,1708.1,760.8,1706.5,783.2z"/>
				<path class="st42" d="M1730.8,737.1c0,0,27.7,26,56.9,10.2c0,0,6.4,104.7,17.8,147.6c11.4,43,45.3,156.1,45.3,156.1l-207.6-6.8
					C1640.6,948.8,1680.2,841.7,1730.8,737.1z"/>
				<linearGradient id="SVGID_39_" gradientUnits="userSpaceOnUse" x1="1852.7601" y1="914.6694" x2="1645.309" y2="886.237">
					<stop  offset="0" style="stop-color:#FE958F"/>
					<stop  offset="1" style="stop-color:#F77C77"/>
				</linearGradient>
				<path class="st43" d="M1721.2,728.2c0,0-104.1,145.2-89,304.2c0,0-9.5,30.8,103.2,30.2s119.7-15.9,119.7-15.9
					c-32.9-86.1-57.4-183.2-67.4-299.4C1787.6,747.3,1745.5,747.4,1721.2,728.2z"/>
				<path class="st37" d="M1754.7,810.9c-15.2,23.8-30,48.6-43.7,73.5c-6.8,12.5-13.4,25-19.5,37.7c-6,12.6-11.7,25.4-15.8,37.8
					c-1,3.1-1.9,6.1-2.7,9.1l-2.4,10.1c-1.4,6.9-2.9,13.8-4.1,20.8c-2.5,14-4.8,28.2-6.8,42.4c-4,28.5-7.5,57.2-10.4,85.8l-1.4,13.8
					l-26.9-1.9l0.6-13.9c1.3-29.3,3.2-58.4,5.6-87.6c1.3-14.6,2.7-29.3,4.5-44c0.9-7.4,2-14.8,3.1-22.2l2-11.3
					c0.8-4,1.8-8.1,2.8-11.9c4.3-15.4,9.7-29.5,15.5-43.4c5.8-13.9,12-27.4,18.5-40.7c13-26.7,26.6-52.5,41.4-78.5l11.5-20.3
					l40.9,25L1754.7,810.9z"/>
				<linearGradient id="SVGID_40_" gradientUnits="userSpaceOnUse" x1="1715.8239" y1="945.892" x2="1627.2386" y2="912.7689">
					<stop  offset="0" style="stop-color:#FFC1C2"/>
					<stop  offset="1" style="stop-color:#FE958F"/>
				</linearGradient>
				<path class="st44" d="M1707.8,761.3c-37.3,33.3-61.4,111.7-79.5,177c-18.1,65.2-10.2,165.8-10.2,165.8l40.9,3.6
					c0,0,6.8-101.7,24.9-145.1c18.1-43.4,93.4-136.8,87.8-167.6C1766.8,767.8,1724.6,746.3,1707.8,761.3z"/>
				<path class="st37" d="M1620.2,1222.2c-9.3-2.3-16.1-24.6-12.1-52.7c3.7-25.9,17.5-41,27.1-39.5
					C1656.5,1133.5,1634.5,1225.7,1620.2,1222.2z"/>
				<path class="st37" d="M1647.6,1186.4c4.2-0.6,7.9-11.5,7.1-26c-0.8-13.3-6.3-21.8-10.6-21.5
					C1634.6,1139.4,1641.2,1187.4,1647.6,1186.4z"/>
				<path class="st38" d="M2159.5,1487.7l-16.9-3v0l-61.6-23.9v0.5c0,0-0.7,10.6-13.5,12.5c-9.4,1.5-15.5-1-18.1-2.5
					c-0.6-0.6-1.1-0.9-1.4-0.9c-4.1,0-7.5,6.7-7.5,15c0,2.7,0.4,5.3,1,7.5v11.5h122.7v-11.7
					C2164.3,1490.2,2162.2,1488,2159.5,1487.7z"/>
				<path class="st38" d="M1970.1,1471.3l-11.4-12.7l0,0l-33.9-56.7l-0.3,0.4c0,0-7.1,7.9-18.4,1.6c-8.3-4.6-11.6-10.4-12.8-13.1
					c-0.1-0.8-0.3-1.4-0.6-1.6c-3.2-2.5-10,0.7-15.1,7.3c-1.7,2.1-3,4.4-3.8,6.5l-7.1,9.1l96.7,75.5l7.2-9.2
					C1972.3,1476.2,1972.1,1473.2,1970.1,1471.3z"/>
				<path class="st36" d="M2006,980.9c-1.2-4-12.5-6.2-26.7-3.4c-13.1,2.6-20.7,9.3-19.9,13.4
					C1961.2,1000.2,2007.9,987.2,2006,980.9z"/>
			</g>
			<g>
				<linearGradient id="SVGID_41_" gradientUnits="userSpaceOnUse" x1="1950.8055" y1="932.0032" x2="2125.8523" y2="932.0032">
					<stop  offset="0" style="stop-color:#7A8FD8"/>
					<stop  offset="1" style="stop-color:#435AC2"/>
				</linearGradient>
				<path class="st45" d="M2119.3,861.5L2119.3,861.5c-5-1.6-10.2,1.2-11.8,6.1l-36.8,116.5h-110.4c-5.2,0-9.4,4.2-9.4,9.4
					s4.2,9.4,9.4,9.4h117.5c4.8,0,8.7-3.5,9.3-8.1l38.4-121.5C2127,868.3,2124.2,863.1,2119.3,861.5z"/>
				<polygon class="st8" points="2070.6,984.1 2076.5,984.1 2112.3,869.6 2106.9,869.6 				"/>
			</g>
		</g>
		<g>
			<polygon class="st36" points="3499,1635.5 3551,1635.5 3551,1536.1 3519.2,1536.1 			"/>
			<path class="st37" d="M3460.7,1485.8c-8.8,40.8-2.3,81.9,22.3,90.8c23.1,8.4,63.2-13.8,81.5-54.1c19.3-42.5,9.9-74.2-24.3-86
				C3503.9,1424,3470.3,1441.1,3460.7,1485.8z"/>
			<path class="st38" d="M3533.1,1422.1c37.8,3,58.7,37.2,56.2,71.1c-2.3,31.6-36.1,48.5-36.1,48.5s-11.2-32.1-29.4-37.2
				c-25.5-7.1-14.5-29.9-26.4-32.4c-12.4-2.6-39.4-12.4-39-30.5C3476,1442.2,3490.7,1418.8,3533.1,1422.1z"/>
			
				<ellipse transform="matrix(0.4091 -0.9125 0.9125 0.4091 708.6028 4125.7124)" class="st37" cx="3539.7" cy="1515.8" rx="13.6" ry="11.3"/>
			<path class="st38" d="M3533.1,1503.8c0,0-2.8,44.1-11.3,60.8c-7.3,14.6-39.3,29.6-56.8-5c0,0,17.6,3.7,15.6-3.8
				c-2.4-8.8-20.5-8.9-20.5-8.9s-3.6-0.2-4.2-3.4c-0.9-4.8,1.4-12.7,1.4-12.7s24,8.6,34.4,8.6c11.7,0,22.4-8.3,32.3-35.6H3533.1z"/>
			<path class="st36" d="M3381.4,2475.9l47.7-267.1l32.4-131.6l32.7-131.9l11.1-44.8l93.7,29.9l-16.9,43l-49.3,125.2
				c-16.4,41.8-33.1,83.6-49.3,125.5l-80.2,257.2l-3.3,10.7l-20.4-5L3381.4,2475.9z"/>
			<path class="st36" d="M3553.9,1901.6l3.7,46l21.1,260.8l197.2,92.4l10.2,4.8l-7.4,19.4l-10.8-3.3l-226.1-68.4
				c-8.3-2.5-15.1-9.4-17.1-18.6l-0.8-3.8l-57.5-270.2l-9.6-45.2L3553.9,1901.6z"/>
			<linearGradient id="SVGID_42_" gradientUnits="userSpaceOnUse" x1="3390.1296" y1="2159.4163" x2="3509.1245" y2="2156.2571">
				<stop  offset="0" style="stop-color:#FE958F"/>
				<stop  offset="1" style="stop-color:#F77C77"/>
			</linearGradient>
			<polygon class="st46" points="3612.7,1873.1 3437.6,1907.1 3382.9,2430.4 3441.6,2438.4 			"/>
			<linearGradient id="SVGID_43_" gradientUnits="userSpaceOnUse" x1="3438.4189" y1="2151.2073" x2="3629.021" y2="2081.7061">
				<stop  offset="0" style="stop-color:#FFC1C2"/>
				<stop  offset="1" style="stop-color:#FE958F"/>
			</linearGradient>
			<path class="st47" d="M3621.3,1908l-176.6-24.7c0,0,27.1,327.6,79.9,369.4c29.4,23.2,192.7,62.4,192.7,62.4l17.6-50.2
				c0,0-123-49.8-133.3-65.2C3590.5,2183,3621.3,1908,3621.3,1908z"/>
			<path class="st36" d="M3495.4,1653.7l-115.8,165.4l21.1-5.9l-136.5-51.8l-12.4-4.7l-9.9,23.7l12.1,5.5l133.1,60.1
				c7.3,3.3,15.8,1,20.5-5.1l0.6-0.8l123.1-160.1l13.6-17.6l-36.7-26.9L3495.4,1653.7z"/>
			<linearGradient id="SVGID_44_" gradientUnits="userSpaceOnUse" x1="3364.0254" y1="1722.5214" x2="3519.175" y2="1766.0475">
				<stop  offset="0" style="stop-color:#435AC2"/>
				<stop  offset="1" style="stop-color:#0F24A4"/>
			</linearGradient>
			<path class="st48" d="M3555.7,1687c-17,44.6-97.2,143.6-159.2,161.6c-36.8,10.7-116.6-45.3-116.6-45.3l11.6-35.9
				c0,0,60.5,40.2,93,9.3c32.5-30.9,90.1-129.7,119.5-135.2C3529.9,1636.6,3563.4,1667,3555.7,1687z"/>
			<path class="st42" d="M3547.4,1614.5c0,0-27.3,23.9-54.5,8c0,0-9.3,99.6-21.5,140.2c-12.2,40.6-46,144-46,144l196.1,3.4
				C3626.8,1819.1,3592.4,1715.8,3547.4,1614.5z"/>
			<linearGradient id="SVGID_45_" gradientUnits="userSpaceOnUse" x1="3417.5466" y1="1763.4155" x2="3630.2629" y2="1766.9257">
				<stop  offset="0" style="stop-color:#435AC2"/>
				<stop  offset="1" style="stop-color:#0F24A4"/>
			</linearGradient>
			<path class="st49" d="M3556.8,1606.3c0,0,94.7,141.6,75.4,292.7c0,0,8.1,29.7-99.3,25.6c-107.4-4-113.6-18.9-113.6-18.9
				c34-81.1,60.4-172.8,73.6-283.3C3492.9,1622.4,3533.1,1623.9,3556.8,1606.3z"/>
			<path class="st37" d="M3526,1676.5c13.5,23.3,26.6,47.6,38.6,71.9c6,12.2,11.7,24.4,17,36.7c5.2,12.3,10,24.7,13.5,36.7
				c0.8,3,1.5,5.9,2.2,8.8l1.8,9.7c1.1,6.6,2.1,13.2,3,19.9c1.8,13.4,3.4,27,4.7,40.7c2.7,27.3,4.8,54.8,6.3,82.2l0.8,13.2l25.8-0.6
				l0-13.3c0-28-0.6-55.8-1.7-83.7c-0.6-14-1.4-28-2.5-42.1c-0.5-7-1.2-14.2-2-21.3l-1.4-10.8c-0.6-3.9-1.3-7.8-2.2-11.5
				c-3.4-14.8-8-28.5-12.9-42c-4.9-13.5-10.3-26.6-15.9-39.6c-11.2-26-23.1-51.2-36.1-76.5l-10.1-19.8l-40,22.1L3526,1676.5z"/>
			<linearGradient id="SVGID_46_" gradientUnits="userSpaceOnUse" x1="3561.0098" y1="1804.2212" x2="3647.3599" y2="1779.65">
				<stop  offset="0" style="stop-color:#435AC2"/>
				<stop  offset="1" style="stop-color:#0F24A4"/>
			</linearGradient>
			<path class="st50" d="M3572.7,1631.2c34.2,33.3,53.8,109,68.3,171.9c14.5,62.9,2.7,158.4,2.7,158.4l-39.2,1.7
				c0,0-2.2-97.2-17.6-139.3s-83.2-134.3-76.6-163.4C3516.2,1634.9,3557.4,1616.2,3572.7,1631.2z"/>
			<path class="st36" d="M3192.3,1747.1c-3,8.6,7.4,24.1,26.5,33.4c17.6,8.5,33.4,4,37-4.5C3263.9,1757.1,3197,1733.8,3192.3,1747.1
				z"/>
			<path class="st37" d="M3627.1,2073.7c9.1-0.7,19-20.6,19.6-47.7c0.6-25-10.1-41.3-19.3-41.4
				C3606.9,1984.6,3613.1,2074.8,3627.1,2073.7z"/>
			<path class="st37" d="M3606.9,2035.7c-3.8-1.2-5.6-12.1-2.6-25.6c2.8-12.4,9.4-19.5,13.3-18.6
				C3626.5,1993.6,3612.8,2037.7,3606.9,2035.7z"/>
			<path class="st38" d="M3303.2,2505.2c0,0,13.5-3.6,17.2-4.9c14.9-5.4,53.6-21.2,53.6-21.2s4.8,7.7,16.7,9.2
				c8.8,1.1,15.3-2.1,15.5-2.1c3.8-0.1,7.1,6,7.3,13.7c0.1,2.5-0.2,4.9-0.7,7l0.3,10.7l-114,3.4l-0.3-10.8
				C3298.8,2507.7,3300.7,2505.5,3303.2,2505.2z"/>
			<path class="st38" d="M3771.6,2404.6c0,0,0.5-14,0.3-17.9c-0.8-15.8-4.7-57.4-4.7-57.4s8.7-2.3,13.6-13.3
				c3.6-8.1,2.5-15.2,2.5-15.5c1-3.7,7.8-5,15.3-3c2.4,0.7,4.6,1.6,6.5,2.7l10.3,2.8l-29.9,110l-10.5-2.8
				C3772.6,2409.5,3771.1,2407.1,3771.6,2404.6z"/>
			<path class="st36" d="M3217.1,1736.9c2.7-3,13.3-0.3,24.5,7.8c10.3,7.5,14.2,16.4,11.8,19.6
				C3248,1771.7,3213,1741.6,3217.1,1736.9z"/>
		</g>
	</g>
</g>
</svg>
