<?xml version="1.0" encoding="utf-8"?>
<!-- Generator: Adobe Illustrator 25.0.0, SVG Export Plug-In . SVG Version: 6.00 Build 0)  -->
<svg version="1.1" xmlns="http://www.w3.org/2000/svg" xmlns:xlink="http://www.w3.org/1999/xlink" x="0px" y="0px"
	 viewBox="0 0 4800 3300" style="enable-background:new 0 0 4800 3300;" xml:space="preserve">
<style type="text/css">
	.st0{opacity:0.4;fill:url(#SVGID_1_);}
	.st1{fill:url(#SVGID_2_);}
	.st2{fill:url(#SVGID_3_);}
	.st3{fill:url(#SVGID_4_);}
	.st4{fill:url(#SVGID_5_);}
	.st5{fill:url(#SVGID_6_);}
	.st6{fill:url(#SVGID_7_);}
	.st7{fill:url(#SVGID_8_);}
	.st8{fill:url(#SVGID_9_);}
	.st9{fill:url(#SVGID_10_);}
	.st10{fill:url(#SVGID_11_);}
	.st11{fill:url(#SVGID_12_);}
	.st12{fill:url(#SVGID_13_);}
	.st13{fill:url(#SVGID_14_);}
	.st14{fill:url(#SVGID_15_);}
	.st15{fill:url(#SVGID_16_);}
	.st16{fill:url(#SVGID_17_);}
	.st17{fill:url(#SVGID_18_);}
	.st18{fill:url(#SVGID_19_);}
	.st19{fill:url(#SVGID_20_);}
	.st20{fill:url(#SVGID_21_);}
	.st21{fill:url(#SVGID_22_);}
	.st22{fill:url(#SVGID_23_);}
	.st23{fill:url(#SVGID_24_);}
	.st24{fill:url(#SVGID_25_);}
	.st25{fill:#FFFFFF;}
	.st26{fill:url(#SVGID_26_);}
	.st27{fill:url(#SVGID_27_);}
	.st28{fill:url(#SVGID_28_);}
	.st29{fill:url(#SVGID_29_);}
	.st30{fill:url(#SVGID_30_);}
	.st31{fill:url(#SVGID_31_);}
	.st32{fill:url(#SVGID_32_);}
	.st33{fill:url(#SVGID_33_);}
	.st34{fill:url(#SVGID_34_);}
	.st35{fill:url(#SVGID_35_);}
	.st36{fill:url(#SVGID_36_);}
	.st37{fill:url(#SVGID_37_);}
	.st38{fill:url(#SVGID_38_);}
	.st39{fill:url(#SVGID_39_);}
	.st40{fill:url(#SVGID_40_);}
	.st41{fill:url(#SVGID_41_);}
	.st42{fill:url(#SVGID_42_);}
	.st43{fill:url(#SVGID_43_);}
	.st44{fill:url(#SVGID_44_);}
	.st45{fill:url(#SVGID_45_);}
	.st46{fill:url(#SVGID_46_);}
	.st47{fill:url(#SVGID_47_);}
	.st48{fill:#03053E;}
	.st49{fill:url(#SVGID_48_);}
	.st50{fill:url(#SVGID_49_);}
	.st51{fill:url(#SVGID_50_);}
	.st52{fill:url(#SVGID_51_);}
	.st53{fill:url(#SVGID_52_);}
	.st54{fill:url(#SVGID_53_);}
	.st55{fill:url(#SVGID_54_);}
	.st56{fill:url(#SVGID_55_);}
	.st57{fill:url(#SVGID_56_);}
	.st58{fill:url(#SVGID_57_);}
	.st59{fill:url(#SVGID_58_);}
	.st60{fill:url(#SVGID_59_);}
	.st61{fill:url(#SVGID_60_);}
	.st62{fill:url(#SVGID_61_);}
	.st63{fill:url(#SVGID_62_);}
	.st64{fill:url(#SVGID_63_);}
	.st65{fill:url(#SVGID_64_);}
	.st66{fill:url(#SVGID_65_);}
	.st67{fill:url(#SVGID_66_);}
	.st68{fill:url(#SVGID_67_);}
	.st69{fill:url(#SVGID_68_);}
	.st70{fill:url(#SVGID_69_);}
	.st71{fill:url(#SVGID_70_);}
	.st72{fill:url(#SVGID_71_);}
	.st73{fill:url(#SVGID_72_);}
	.st74{fill:url(#SVGID_73_);}
	.st75{fill:#EFBC90;}
	.st76{fill:#F4CAAB;}
	.st77{fill:url(#SVGID_74_);}
	.st78{fill:url(#SVGID_75_);}
	.st79{fill:url(#SVGID_76_);}
	.st80{fill:url(#SVGID_77_);}
	.st81{fill:url(#SVGID_78_);}
	.st82{fill:url(#SVGID_79_);}
	.st83{fill:url(#SVGID_80_);}
	.st84{fill:url(#SVGID_81_);}
	.st85{fill:url(#SVGID_82_);}
	.st86{fill:url(#SVGID_83_);}
	.st87{fill:url(#SVGID_84_);}
	.st88{fill:url(#SVGID_85_);}
	.st89{fill:url(#SVGID_86_);}
	.st90{fill:url(#SVGID_87_);}
	.st91{fill:url(#SVGID_88_);}
	.st92{fill:url(#SVGID_89_);}
	.st93{fill:url(#SVGID_90_);}
	.st94{fill:url(#SVGID_91_);}
	.st95{fill:url(#SVGID_92_);}
	.st96{fill:url(#SVGID_93_);}
	.st97{fill:url(#SVGID_94_);}
	.st98{fill:url(#SVGID_95_);}
	.st99{fill:url(#SVGID_96_);}
	.st100{fill:url(#SVGID_97_);}
	.st101{fill:url(#SVGID_98_);}
	.st102{fill:url(#SVGID_99_);}
	.st103{fill:url(#SVGID_100_);}
	.st104{fill:url(#SVGID_101_);}
	.st105{fill:url(#SVGID_102_);}
	.st106{fill:url(#SVGID_103_);}
	.st107{fill:url(#SVGID_104_);}
	.st108{fill:url(#SVGID_105_);}
	.st109{fill:url(#SVGID_106_);}
	.st110{fill:url(#SVGID_107_);}
	.st111{fill:url(#SVGID_108_);}
	.st112{fill:url(#SVGID_109_);}
	.st113{fill:url(#SVGID_110_);}
	.st114{fill:url(#SVGID_111_);}
	.st115{fill:url(#SVGID_112_);}
	.st116{fill:url(#SVGID_113_);}
	.st117{fill:url(#SVGID_114_);}
	.st118{fill:url(#SVGID_115_);}
	.st119{fill:url(#SVGID_116_);}
	.st120{fill:url(#SVGID_117_);}
	.st121{fill:url(#SVGID_118_);}
	.st122{fill:url(#SVGID_119_);}
	.st123{fill:url(#SVGID_120_);}
	.st124{fill:url(#SVGID_121_);}
	.st125{fill:url(#SVGID_122_);}
	.st126{fill:url(#SVGID_123_);}
	.st127{fill:url(#SVGID_124_);}
	.st128{fill:url(#SVGID_125_);}
	.st129{fill:url(#SVGID_126_);}
	.st130{fill:url(#SVGID_127_);}
	.st131{fill:url(#SVGID_128_);}
	.st132{fill:url(#SVGID_129_);}
	.st133{fill:url(#SVGID_130_);}
	.st134{fill:url(#SVGID_131_);}
	.st135{fill:url(#SVGID_132_);}
	.st136{fill:url(#SVGID_133_);}
	.st137{fill:url(#SVGID_134_);}
	.st138{fill:url(#SVGID_135_);}
	.st139{fill:url(#SVGID_136_);}
	.st140{fill:url(#SVGID_137_);}
</style>
<g id="Ñëîé_2">
</g>
<g id="Ñëîé_1">
	<g>
		<linearGradient id="SVGID_1_" gradientUnits="userSpaceOnUse" x1="636.5789" y1="1736.4181" x2="4250.8159" y2="1736.4181">
			<stop  offset="0" style="stop-color:#FFE2E4"/>
			<stop  offset="1" style="stop-color:#A4B8EA"/>
		</linearGradient>
		<path class="st0" d="M3013.7,340.4c-249.3,0-481.3,73.7-675.5,200.5c-132.9,86.8-304.9,87.2-438.3,1.1
			c-126.4-81.5-276.6-129.2-437.9-130.3c-455-3.1-827,367.5-825.4,822.5c0.6,181.9,60.4,349.8,161.2,485.5
			c61.9,83.3,93,185.8,86.9,289.4c-0.2,3.2-0.4,6.5-0.5,9.7c-31.2,626.2,488,1144.4,1114.2,1112.2c196.6-10.1,379-73.8,532.9-176.7
			c139.5-93.3,304.2-141.2,472-139.8c3.5,0,7,0,10.4,0c683.2,0,1237.1-553.9,1237.1-1237.1S3697,340.4,3013.7,340.4z"/>
		<linearGradient id="SVGID_2_" gradientUnits="userSpaceOnUse" x1="3996.998" y1="455.3045" x2="3566.3821" y2="1566.2922">
			<stop  offset="0" style="stop-color:#FFE2E4"/>
			<stop  offset="1" style="stop-color:#A4B8EA"/>
		</linearGradient>
		<path class="st1" d="M3126,2401.7c88.8-12,248.5-58.8,305.6-144.1c52.7-78.8-19.9-180.3,18.4-257.1
			c38.2-76.8,267.5-128.7,329.1-217.6c73-105.4-98.1-196.2-19.8-268.8c78.3-72.6,345.2-151.9,367.7-240.7
			c22.5-88.8-84.4-88.6,9.2-252.3c79.2-138.6,185.4-320.4,88.8-399.7c-102.9-84.5-230.4,57.3-297.5,169.1
			c-86.5,143.9-170.4-12.2-267.6,53.6c-87.9,59.4-83.3,396-150.4,461.2c-67.1,65.2-193.9,12.1-287.1,125.8
			c-93.2,113.7,35.6,297-13,382.9c-48.5,85.9-182.6,49.4-252.1,171.3C2888,2107.1,3126,2401.7,3126,2401.7z"/>
		
			<linearGradient id="SVGID_3_" gradientUnits="userSpaceOnUse" x1="3017.4983" y1="2175.6077" x2="4498.2393" y2="2058.8062" gradientTransform="matrix(0.9991 -4.140000e-02 4.140000e-02 0.9991 -62.9893 111.553)">
			<stop  offset="0" style="stop-color:#FFE2E4"/>
			<stop  offset="1" style="stop-color:#A4B8EA"/>
		</linearGradient>
		<path class="st2" d="M3227.3,2354.9c44.5,20.1,131.9,44.6,183,21.7c47.1-21.2,42.9-89.1,82.8-113.6c39.9-24.5,161,17.8,215.1-5.5
			c64.2-27.6,11.3-119.1,68.6-130.1c57.2-10.9,203.6,29.5,239.7-5c36.1-34.5-13.4-65.4,77.2-114c76.7-41.2,178.4-94.6,156.6-159.2
			c-23.2-68.8-123.1-40.1-186.5-7.8c-81.6,41.6-75.3-54.9-139.3-52.6c-57.8,2.1-153,159.1-202.9,169.9
			c-49.9,10.8-93.2-50.5-169.1-24.8c-76,25.7-69.4,147.7-116.7,173.4c-47.3,25.7-98.7-29.9-166.1,6.4
			C3202.3,2149.8,3227.3,2354.9,3227.3,2354.9z"/>
		<g>
			<g>
				
					<linearGradient id="SVGID_4_" gradientUnits="userSpaceOnUse" x1="5984.3018" y1="2191.2671" x2="6156.7427" y2="2191.2671" gradientTransform="matrix(1 0 0 1 -3048.6426 -1371.7996)">
					<stop  offset="0" style="stop-color:#FFFBFC"/>
					<stop  offset="1" style="stop-color:#FFE2E4"/>
				</linearGradient>
				<polygon class="st3" points="3108.1,909.5 2935.7,909.5 2969,729.4 3074.8,729.4 				"/>
				
					<linearGradient id="SVGID_5_" gradientUnits="userSpaceOnUse" x1="5890.1582" y1="2259.8633" x2="6021.6509" y2="2259.8633" gradientTransform="matrix(1 0 0 1 -3048.6426 -1371.7996)">
					<stop  offset="0" style="stop-color:#FFFBFC"/>
					<stop  offset="1" style="stop-color:#FFE2E4"/>
				</linearGradient>
				<circle class="st4" cx="2907.3" cy="888.1" r="65.7"/>
				
					<linearGradient id="SVGID_6_" gradientUnits="userSpaceOnUse" x1="5826.8999" y1="2259.8633" x2="5906.2412" y2="2259.8633" gradientTransform="matrix(1 0 0 1 -3048.6426 -1371.7996)">
					<stop  offset="0" style="stop-color:#FFFBFC"/>
					<stop  offset="1" style="stop-color:#FFE2E4"/>
				</linearGradient>
				<circle class="st5" cx="2817.9" cy="888.1" r="39.7"/>
				
					<linearGradient id="SVGID_7_" gradientUnits="userSpaceOnUse" x1="6237.7539" y1="2267.7212" x2="6317.0952" y2="2267.7212" gradientTransform="matrix(1 0 0 1 -3048.6426 -1371.7996)">
					<stop  offset="0" style="stop-color:#FFFBFC"/>
					<stop  offset="1" style="stop-color:#FFE2E4"/>
				</linearGradient>
				<circle class="st6" cx="3228.8" cy="895.9" r="39.7"/>
				
					<linearGradient id="SVGID_8_" gradientUnits="userSpaceOnUse" x1="6233.647" y1="2168.0879" x2="6274.4741" y2="2168.0879" gradientTransform="matrix(1 0 0 1 -3048.6426 -1371.7996)">
					<stop  offset="0" style="stop-color:#FFFBFC"/>
					<stop  offset="1" style="stop-color:#FFE2E4"/>
				</linearGradient>
				<circle class="st7" cx="3205.4" cy="796.3" r="20.4"/>
				
					<linearGradient id="SVGID_9_" gradientUnits="userSpaceOnUse" x1="5943.2007" y1="2147.6743" x2="5973.3672" y2="2147.6743" gradientTransform="matrix(1 0 0 1 -3048.6426 -1371.7996)">
					<stop  offset="0" style="stop-color:#FFFBFC"/>
					<stop  offset="1" style="stop-color:#FFE2E4"/>
				</linearGradient>
				<circle class="st8" cx="2909.6" cy="775.9" r="15.1"/>
				
					<linearGradient id="SVGID_10_" gradientUnits="userSpaceOnUse" x1="6106.7832" y1="2267.7212" x2="6253.9922" y2="2267.7212" gradientTransform="matrix(1 0 0 1 -3048.6426 -1371.7996)">
					<stop  offset="0" style="stop-color:#FFFBFC"/>
					<stop  offset="1" style="stop-color:#FFE2E4"/>
				</linearGradient>
				<circle class="st9" cx="3131.7" cy="895.9" r="73.6"/>
				
					<linearGradient id="SVGID_11_" gradientUnits="userSpaceOnUse" x1="5972.5054" y1="2303.6833" x2="6160.4727" y2="2303.6833" gradientTransform="matrix(1 0 0 1 -3048.6426 -1371.7996)">
					<stop  offset="0" style="stop-color:#FFFBFC"/>
					<stop  offset="1" style="stop-color:#FFE2E4"/>
				</linearGradient>
				<circle class="st10" cx="3017.8" cy="931.9" r="94"/>
			</g>
			<g>
				
					<linearGradient id="SVGID_12_" gradientUnits="userSpaceOnUse" x1="5859.4648" y1="1958.1609" x2="5953.0171" y2="1958.1609" gradientTransform="matrix(1 0 0 1 -3048.6426 -1371.7996)">
					<stop  offset="0" style="stop-color:#7A8FD8"/>
					<stop  offset="1" style="stop-color:#435AC2"/>
				</linearGradient>
				<path class="st11" d="M2886.3,462.3c0,0-65.6-1.9-74.1,88.4s25.7,159.7,25.7,159.7l66.5-83.6L2886.3,462.3z"/>
				
					<linearGradient id="SVGID_13_" gradientUnits="userSpaceOnUse" x1="-5681.2026" y1="1958.1609" x2="-5587.6504" y2="1958.1609" gradientTransform="matrix(-1 0 0 1 -2448.2656 -1371.7996)">
					<stop  offset="0" style="stop-color:#7A8FD8"/>
					<stop  offset="1" style="stop-color:#435AC2"/>
				</linearGradient>
				<path class="st12" d="M3157.4,462.3c0,0,65.6-1.9,74.1,88.4c8.6,90.3-25.7,159.7-25.7,159.7l-66.5-83.6L3157.4,462.3z"/>
				<linearGradient id="SVGID_14_" gradientUnits="userSpaceOnUse" x1="3157.3213" y1="399.194" x2="2872.8374" y2="399.194">
					<stop  offset="0" style="stop-color:#A3B7E9"/>
					<stop  offset="1" style="stop-color:#B8C7EE"/>
				</linearGradient>
				<path class="st13" d="M3155.4,371.3c-27-197.7-133.5-273.8-133.5-273.8s-106.5,76-133.5,273.8c-27,197.7,35.5,329.5,35.5,329.5
					h98h98C3119.9,700.8,3182.4,569,3155.4,371.3z"/>
				
					<linearGradient id="SVGID_15_" gradientUnits="userSpaceOnUse" x1="5951.1055" y1="1570.849" x2="6189.939" y2="1570.849" gradientTransform="matrix(1 0 0 1 -3048.6426 -1371.7996)">
					<stop  offset="0" style="stop-color:#7A8FD8"/>
					<stop  offset="1" style="stop-color:#435AC2"/>
				</linearGradient>
				<path class="st14" d="M3021.9,286c41.2,0,81.2,5.1,119.4,14.6c-38.7-145.4-119.4-203-119.4-203s-80.7,57.6-119.4,203
					C2940.7,291,2980.7,286,3021.9,286z"/>
				
					<linearGradient id="SVGID_16_" gradientUnits="userSpaceOnUse" x1="5958.2837" y1="1824.5645" x2="6182.7607" y2="1824.5645" gradientTransform="matrix(1 0 0 1 -3048.6426 -1371.7996)">
					<stop  offset="0" style="stop-color:#FE958F"/>
					<stop  offset="1" style="stop-color:#F77C77"/>
				</linearGradient>
				<circle class="st15" cx="3021.9" cy="452.8" r="112.2"/>
				
					<linearGradient id="SVGID_17_" gradientUnits="userSpaceOnUse" x1="5975.8306" y1="1824.5645" x2="6165.2139" y2="1824.5645" gradientTransform="matrix(1 0 0 1 -3048.6426 -1371.7996)">
					<stop  offset="0" style="stop-color:#FFFBFC"/>
					<stop  offset="1" style="stop-color:#FFE2E4"/>
				</linearGradient>
				<circle class="st16" cx="3021.9" cy="452.8" r="94.7"/>
				
					<linearGradient id="SVGID_18_" gradientUnits="userSpaceOnUse" x1="5972.5054" y1="2086.9409" x2="6168.5396" y2="2086.9409" gradientTransform="matrix(1 0 0 1 -3048.6426 -1371.7996)">
					<stop  offset="0" style="stop-color:#FE958F"/>
					<stop  offset="1" style="stop-color:#F77C77"/>
				</linearGradient>
				<rect x="2923.9" y="700.8" class="st17" width="196" height="28.6"/>
			</g>
		</g>
		<linearGradient id="SVGID_19_" gradientUnits="userSpaceOnUse" x1="187.3636" y1="1181.757" x2="1595.1139" y2="1661.5865">
			<stop  offset="0" style="stop-color:#FFE2E4"/>
			<stop  offset="1" style="stop-color:#A4B8EA"/>
		</linearGradient>
		<path class="st18" d="M539.8,1461.8c-55,313,586.5,437.9,588.1,498.7c1.6,60.8-325.6,32.5-253.6,194.5
			c66.6,150.1,576.6,190.7,941,3c10.6-5.4,256.2-473,53.1-733.5C1665.2,1164,1625,1626.9,1535,1618.4
			c-90-8.5,84.4-581.6-102.9-695.6c-194.1-118.1-237.1,290-328.2,231.1c-86.3-55.8-152.4-630.7-381.3-547.1
			c-8.3,3-16.8,6.9-25.5,11.7l-0.1,0l0,0c-4.6,2.5-9.3,5.4-14.1,8.4c-261.3,169.3,271.7,757.2,156.5,784.9
			C724.3,1439.7,567.7,1303.1,539.8,1461.8z"/>
		<linearGradient id="SVGID_20_" gradientUnits="userSpaceOnUse" x1="1895.5308" y1="1880.3756" x2="1002.3286" y2="1705.2965">
			<stop  offset="0" style="stop-color:#FFE2E4"/>
			<stop  offset="1" style="stop-color:#A4B8EA"/>
		</linearGradient>
		<path class="st19" d="M1673.2,2284.2c0,0-283.5-502.3-532.4-767.7s-444.7-318.6-444.7-318.6s120.1,116.4,225.5,286.6
			c105.3,170.2,176.9,361.4,308.9,519.4C1430.1,2242.8,1673.2,2284.2,1673.2,2284.2z"/>
		<linearGradient id="SVGID_21_" gradientUnits="userSpaceOnUse" x1="916.5215" y1="1912.3455" x2="1560.4574" y2="2051.8152">
			<stop  offset="0" style="stop-color:#FFE2E4"/>
			<stop  offset="1" style="stop-color:#A4B8EA"/>
		</linearGradient>
		<path class="st20" d="M1577.2,2294c0,0-247.8-318.8-447.4-477.1s-340.6-175.1-340.6-175.1s95.1,68.3,185.5,175.4
			c90.4,107.1,159.6,232.2,267.1,328C1404.6,2290.3,1577.2,2294,1577.2,2294z"/>
		<g>
			<g>
				<linearGradient id="SVGID_22_" gradientUnits="userSpaceOnUse" x1="1489.39" y1="1704.875" x2="2593.0564" y2="1704.875">
					<stop  offset="0" style="stop-color:#7A8FD8"/>
					<stop  offset="1" style="stop-color:#435AC2"/>
				</linearGradient>
				<rect x="1489.4" y="989.1" class="st21" width="1103.7" height="1431.6"/>
			</g>
			<g>
				<linearGradient id="SVGID_23_" gradientUnits="userSpaceOnUse" x1="2593.0564" y1="1704.875" x2="3696.7229" y2="1704.875">
					<stop  offset="0" style="stop-color:#7A8FD8"/>
					<stop  offset="1" style="stop-color:#435AC2"/>
				</linearGradient>
				<rect x="2593.1" y="989.1" class="st22" width="1103.7" height="1431.6"/>
			</g>
			<linearGradient id="SVGID_24_" gradientUnits="userSpaceOnUse" x1="2277.6785" y1="1765.7163" x2="2778.7095" y2="1765.7163">
				<stop  offset="0" style="stop-color:#7A8FD8"/>
				<stop  offset="1" style="stop-color:#435AC2"/>
			</linearGradient>
			<rect x="2454.6" y="1110.8" class="st23" width="277.2" height="1309.9"/>
			<g>
				<g>
					
						<linearGradient id="SVGID_25_" gradientUnits="userSpaceOnUse" x1="1390.962" y1="2386.8794" x2="1390.962" y2="2191.0342" gradientTransform="matrix(-1 0 0 1 4548.1748 0)">
						<stop  offset="0" style="stop-color:#FFFFFF"/>
						<stop  offset="1" style="stop-color:#E7ECF9"/>
					</linearGradient>
					<path class="st24" d="M2644.7,1025.6c0,436.7,0,873.4,0,1310c28.7,6.1,56.4,16.3,83.1,30.5c306.4-103.7,641.2-93.4,941.9,31.2
						V1025.6C3341.6,889.7,2972.9,889.7,2644.7,1025.6z"/>
				</g>
			</g>
			<path class="st25" d="M2642.1,1022.4c0,437.6,0,875.2,0,1312.8c27.9,5.7,54.9,15.1,80.9,28.4c307-104.5,642.7-94.4,944.1,30.4
				V1022.4C3339,886.4,2970.3,886.4,2642.1,1022.4z"/>
			
				<linearGradient id="SVGID_26_" gradientUnits="userSpaceOnUse" x1="1396.1285" y1="2386.8796" x2="1396.1285" y2="2191.0344" gradientTransform="matrix(-1 0 0 1 4548.1748 0)">
				<stop  offset="0" style="stop-color:#FFFFFF"/>
				<stop  offset="1" style="stop-color:#E7ECF9"/>
			</linearGradient>
			<path class="st26" d="M2639.6,1019.1c0,438.5,0,877.1,0,1315.6c27.1,5.3,53.2,14.1,78.5,26.5c307.7-105.4,644.3-95.6,946.5,29.6
				V1019.1C3336.4,883.1,2967.7,883.1,2639.6,1019.1z"/>
			<path class="st25" d="M2637,1015.8c0,439.5,0,878.9,0,1318.4c26.2,4.9,51.5,13.1,76,24.6c308.3-106.3,645.9-96.7,949,28.8V1015.8
				C3333.8,879.9,2965.1,879.9,2637,1015.8z"/>
			
				<linearGradient id="SVGID_27_" gradientUnits="userSpaceOnUse" x1="1401.2949" y1="2386.8799" x2="1401.2949" y2="2191.0344" gradientTransform="matrix(-1 0 0 1 4548.1748 0)">
				<stop  offset="0" style="stop-color:#FFFFFF"/>
				<stop  offset="1" style="stop-color:#E7ECF9"/>
			</linearGradient>
			<path class="st27" d="M2634.4,1012.5c0,440.4,0,880.8,0,1321.2c25.2,4.5,49.7,12,73.4,22.6c309-107.3,647.7-98,951.6,27.9V1012.5
				C3331.2,876.6,2962.5,876.6,2634.4,1012.5z"/>
			<path class="st25" d="M2631.8,1009.2c0,441.4,0,882.7,0,1324.1c24.3,4.1,47.8,11,70.6,20.7c309.8-108.3,649.6-99.3,954.4,26.9
				V1009.2C3328.6,873.3,2959.9,873.3,2631.8,1009.2z"/>
			
				<linearGradient id="SVGID_28_" gradientUnits="userSpaceOnUse" x1="1406.4613" y1="2386.8801" x2="1406.4613" y2="2191.0349" gradientTransform="matrix(-1 0 0 1 4548.1748 0)">
				<stop  offset="0" style="stop-color:#FFFFFF"/>
				<stop  offset="1" style="stop-color:#E7ECF9"/>
			</linearGradient>
			<path class="st28" d="M2629.2,1005.9c0,442.3,0,884.6,0,1326.9c23.2,3.7,45.8,10,67.8,18.9c310.5-109.4,651.5-100.7,957.2,25.9
				V1005.9C3326.1,870,2957.4,870,2629.2,1005.9z"/>
			<path class="st25" d="M2626.6,1002.6c0,443.3,0,886.5,0,1329.8c22.2,3.4,43.7,9.1,64.7,17.1c311.4-110.5,653.5-102.2,960.3,24.8
				V1002.6C3323.5,866.7,2954.8,866.7,2626.6,1002.6z"/>
			
				<linearGradient id="SVGID_29_" gradientUnits="userSpaceOnUse" x1="1411.6278" y1="2386.8801" x2="1411.6278" y2="2191.0349" gradientTransform="matrix(-1 0 0 1 4548.1748 0)">
				<stop  offset="0" style="stop-color:#FFFFFF"/>
				<stop  offset="1" style="stop-color:#E7ECF9"/>
			</linearGradient>
			<path class="st29" d="M2624.1,999.3c0,444.2,0,888.5,0,1332.7c21.1,3,41.6,8.1,61.6,15.3c312.2-111.7,655.6-103.8,963.4,23.7
				V999.3C3320.9,863.4,2952.2,863.4,2624.1,999.3z"/>
			<path class="st25" d="M2621.5,996c0,445.2,0,890.4,0,1335.6c19.9,2.7,39.2,7.2,58.1,13.6c313.1-112.9,657.9-105.5,966.9,22.5V996
				C3318.3,860.1,2949.6,860.1,2621.5,996z"/>
			
				<linearGradient id="SVGID_30_" gradientUnits="userSpaceOnUse" x1="1416.7942" y1="2386.8804" x2="1416.7942" y2="2191.0349" gradientTransform="matrix(-1 0 0 1 4548.1748 0)">
				<stop  offset="0" style="stop-color:#FFFFFF"/>
				<stop  offset="1" style="stop-color:#E7ECF9"/>
			</linearGradient>
			<path class="st30" d="M2618.9,992.7c0,446.2,0,892.4,0,1338.6c18.6,2.3,36.8,6.3,54.6,11.9c314.1-114.3,660.3-107.3,970.4,21.2
				V992.7C3315.7,856.8,2947,856.8,2618.9,992.7z"/>
			<path class="st25" d="M2616.3,989.5c0,447.2,0,894.3,0,1341.5c0.3,0,0.5,0.1,0.8,0.1c17,2,33.7,5.4,50,10.2
				c315-115.7,662.8-109.1,974.1,19.8V989.5C3313.1,853.5,2944.4,853.5,2616.3,989.5z"/>
			
				<linearGradient id="SVGID_31_" gradientUnits="userSpaceOnUse" x1="1421.9606" y1="2386.8792" x2="1421.9606" y2="2191.0337" gradientTransform="matrix(-1 0 0 1 4548.1748 0)">
				<stop  offset="0" style="stop-color:#FFFFFF"/>
				<stop  offset="1" style="stop-color:#E7ECF9"/>
			</linearGradient>
			<path class="st31" d="M2613.7,986.2c0,448.1,0,896.3,0,1344.4c1,0.1,1.9,0.3,2.9,0.4c14.9,1.8,29.6,4.6,44,8.5
				c316.1-117.2,665.5-111.1,978.1,18.3V986.2C3310.6,850.2,2941.9,850.2,2613.7,986.2z"/>
			<path class="st25" d="M2611.1,982.9c0,449.1,0,898.3,0,1347.4c1.3,0.2,2.6,0.4,3.9,0.6c13.2,1.5,26.1,3.8,38.8,6.9
				c317.2-118.8,668.3-113.3,982.3,16.8V982.9C3308,847,2939.3,847,2611.1,982.9z"/>
			
				<linearGradient id="SVGID_32_" gradientUnits="userSpaceOnUse" x1="1427.127" y1="2386.8796" x2="1427.127" y2="2191.0342" gradientTransform="matrix(-1 0 0 1 4548.1748 0)">
				<stop  offset="0" style="stop-color:#FFFFFF"/>
				<stop  offset="1" style="stop-color:#E7ECF9"/>
			</linearGradient>
			<path class="st32" d="M2608.6,979.6c0,450.1,0,900.2,0,1350.4c2.7,0.3,5.5,0.7,8.2,1.1c10.2,1.2,20.2,2.9,30.1,5.1
				c318.3-120.5,671.2-115.5,986.7,15.1V979.6C3305.4,843.7,2936.7,843.7,2608.6,979.6z"/>
			<path class="st25" d="M2606,976.3c0,451.1,0,902.2,0,1353.4c3.4,0.3,6.8,0.8,10.1,1.3c7.9,0.9,15.7,2.2,23.4,3.7
				c319.6-122.4,674.4-118,991.4,13.3V976.3C3302.8,840.4,2934.1,840.4,2606,976.3z"/>
			
				<linearGradient id="SVGID_33_" gradientUnits="userSpaceOnUse" x1="1432.2935" y1="2386.8796" x2="1432.2935" y2="2191.0342" gradientTransform="matrix(-1 0 0 1 4548.1748 0)">
				<stop  offset="0" style="stop-color:#FFFFFF"/>
				<stop  offset="1" style="stop-color:#E7ECF9"/>
			</linearGradient>
			<path class="st33" d="M2603.4,973c0,452.1,0,904.3,0,1356.4c4.7,0.4,9.4,1,14,1.7c4.9,0.6,9.7,1.3,14.6,2.1
				c320.9-124.4,677.8-120.6,996.4,11.4V973C3300.2,837.1,2931.5,837.1,2603.4,973z"/>
			<path class="st25" d="M2600.8,969.7c0,453.2,0,906.3,0,1359.5c5.3,0.4,10.6,1,15.9,1.8c2.5,0.3,5,0.6,7.5,1
				c322.2-126.4,681.3-123.3,1001.6,9.4V969.7C3297.6,833.8,2928.9,833.8,2600.8,969.7z"/>
			
				<linearGradient id="SVGID_34_" gradientUnits="userSpaceOnUse" x1="1437.4598" y1="2386.8796" x2="1437.4598" y2="2191.0344" gradientTransform="matrix(-1 0 0 1 4548.1748 0)">
				<stop  offset="0" style="stop-color:#FFFFFF"/>
				<stop  offset="1" style="stop-color:#E7ECF9"/>
			</linearGradient>
			<path class="st34" d="M2598.2,966.4c0,454.2,0,908.4,0,1362.6c6,0.3,11.9,1,17.8,1.9c323.6-128.7,685-126.3,1007.2,7.2V966.4
				C3295.1,830.5,2926.4,830.5,2598.2,966.4z"/>
			<path class="st25" d="M2595.6,963.1c0,455.3,0,910.5,0,1365.8c4.1,0.2,8.2,0.5,12.2,0.9c325.1-130.9,688.7-129.3,1012.8,5V963.1
				C3292.5,827.2,2923.8,827.2,2595.6,963.1z"/>
			
				<linearGradient id="SVGID_35_" gradientUnits="userSpaceOnUse" x1="1442.6263" y1="2197.4448" x2="1442.6263" y2="2324.8838" gradientTransform="matrix(-1 0 0 1 4548.1748 0)">
				<stop  offset="0" style="stop-color:#FFFFFF"/>
				<stop  offset="1" style="stop-color:#E7ECF9"/>
			</linearGradient>
			<path class="st35" d="M2593.1,959.8c0,456.3,0,912.7,0,1369c2,0.1,4,0.1,6,0.3c326.6-133.5,692.8-132.7,1019,2.4V959.8
				C3289.9,823.9,2921.2,823.9,2593.1,959.8z"/>
			<g>
				<g>
					
						<linearGradient id="SVGID_36_" gradientUnits="userSpaceOnUse" x1="2029.0187" y1="2386.8794" x2="2029.0187" y2="2191.0342" gradientTransform="matrix(1 0 0 1 7.520000e-02 0)">
						<stop  offset="0" style="stop-color:#FFFFFF"/>
						<stop  offset="1" style="stop-color:#E7ECF9"/>
					</linearGradient>
					<path class="st36" d="M2541.6,1025.6c0,436.7,0,873.4,0,1310c-28.7,6.1-56.4,16.3-83.1,30.5
						c-306.4-103.7-641.2-93.4-941.9,31.2V1025.6C1844.7,889.7,2213.4,889.7,2541.6,1025.6z"/>
				</g>
			</g>
			<path class="st25" d="M2544.2,1022.4c0,437.6,0,875.2,0,1312.8c-27.9,5.7-54.9,15.1-80.9,28.4c-307-104.5-642.7-94.4-944.1,30.4
				V1022.4C1847.3,886.4,2216,886.4,2544.2,1022.4z"/>
			
				<linearGradient id="SVGID_37_" gradientUnits="userSpaceOnUse" x1="2034.1851" y1="2386.8796" x2="2034.1851" y2="2191.0344" gradientTransform="matrix(1 0 0 1 7.520000e-02 0)">
				<stop  offset="0" style="stop-color:#FFFFFF"/>
				<stop  offset="1" style="stop-color:#E7ECF9"/>
			</linearGradient>
			<path class="st37" d="M2546.8,1019.1c0,438.5,0,877.1,0,1315.6c-27.1,5.3-53.2,14.1-78.5,26.5
				c-307.7-105.4-644.3-95.6-946.5,29.6V1019.1C1849.9,883.1,2218.6,883.1,2546.8,1019.1z"/>
			<path class="st25" d="M2549.3,1015.8c0,439.5,0,878.9,0,1318.4c-26.2,4.9-51.5,13.1-76,24.6c-308.3-106.3-645.9-96.7-949,28.8
				V1015.8C1852.5,879.9,2221.2,879.9,2549.3,1015.8z"/>
			
				<linearGradient id="SVGID_38_" gradientUnits="userSpaceOnUse" x1="2039.3514" y1="2386.8799" x2="2039.3514" y2="2191.0344" gradientTransform="matrix(1 0 0 1 7.520000e-02 0)">
				<stop  offset="0" style="stop-color:#FFFFFF"/>
				<stop  offset="1" style="stop-color:#E7ECF9"/>
			</linearGradient>
			<path class="st38" d="M2551.9,1012.5c0,440.4,0,880.8,0,1321.2c-25.2,4.5-49.7,12-73.4,22.6c-309-107.3-647.7-98-951.6,27.9
				V1012.5C1855.1,876.6,2223.8,876.6,2551.9,1012.5z"/>
			<path class="st25" d="M2554.5,1009.2c0,441.4,0,882.7,0,1324.1c-24.3,4.1-47.8,11-70.6,20.7c-309.8-108.3-649.6-99.3-954.4,26.9
				V1009.2C1857.7,873.3,2226.4,873.3,2554.5,1009.2z"/>
			
				<linearGradient id="SVGID_39_" gradientUnits="userSpaceOnUse" x1="2044.5179" y1="2386.8801" x2="2044.5179" y2="2191.0349" gradientTransform="matrix(1 0 0 1 7.520000e-02 0)">
				<stop  offset="0" style="stop-color:#FFFFFF"/>
				<stop  offset="1" style="stop-color:#E7ECF9"/>
			</linearGradient>
			<path class="st39" d="M2557.1,1005.9c0,442.3,0,884.6,0,1326.9c-23.2,3.7-45.8,10-67.8,18.9c-310.5-109.4-651.5-100.7-957.2,25.9
				V1005.9C1860.2,870,2228.9,870,2557.1,1005.9z"/>
			<path class="st25" d="M2559.7,1002.6c0,443.3,0,886.5,0,1329.8c-22.2,3.4-43.7,9.1-64.7,17.1
				c-311.4-110.5-653.5-102.2-960.3,24.8V1002.6C1862.8,866.7,2231.5,866.7,2559.7,1002.6z"/>
			
				<linearGradient id="SVGID_40_" gradientUnits="userSpaceOnUse" x1="2049.6843" y1="2386.8801" x2="2049.6843" y2="2191.0349" gradientTransform="matrix(1 0 0 1 7.520000e-02 0)">
				<stop  offset="0" style="stop-color:#FFFFFF"/>
				<stop  offset="1" style="stop-color:#E7ECF9"/>
			</linearGradient>
			<path class="st40" d="M2562.3,999.3c0,444.2,0,888.5,0,1332.7c-21.1,3-41.6,8.1-61.6,15.3c-312.2-111.7-655.6-103.8-963.4,23.7
				V999.3C1865.4,863.4,2234.1,863.4,2562.3,999.3z"/>
			<path class="st25" d="M2564.8,996c0,445.2,0,890.4,0,1335.6c-19.9,2.7-39.2,7.2-58.1,13.6c-313.1-112.9-657.9-105.5-966.9,22.5
				V996C1868,860.1,2236.7,860.1,2564.8,996z"/>
			
				<linearGradient id="SVGID_41_" gradientUnits="userSpaceOnUse" x1="2054.8508" y1="2386.8804" x2="2054.8508" y2="2191.0349" gradientTransform="matrix(1 0 0 1 7.520000e-02 0)">
				<stop  offset="0" style="stop-color:#FFFFFF"/>
				<stop  offset="1" style="stop-color:#E7ECF9"/>
			</linearGradient>
			<path class="st41" d="M2567.4,992.7c0,446.2,0,892.4,0,1338.6c-18.6,2.3-36.8,6.3-54.6,11.9c-314.1-114.3-660.3-107.3-970.4,21.2
				V992.7C1870.6,856.8,2239.3,856.8,2567.4,992.7z"/>
			<path class="st25" d="M2570,989.5c0,447.2,0,894.3,0,1341.5c-0.3,0-0.5,0.1-0.8,0.1c-17,2-33.7,5.4-50,10.2
				c-315-115.7-662.8-109.1-974.1,19.8V989.5C1873.2,853.5,2241.9,853.5,2570,989.5z"/>
			
				<linearGradient id="SVGID_42_" gradientUnits="userSpaceOnUse" x1="2060.0171" y1="2386.8792" x2="2060.0171" y2="2191.0337" gradientTransform="matrix(1 0 0 1 7.520000e-02 0)">
				<stop  offset="0" style="stop-color:#FFFFFF"/>
				<stop  offset="1" style="stop-color:#E7ECF9"/>
			</linearGradient>
			<path class="st42" d="M2572.6,986.2c0,448.1,0,896.3,0,1344.4c-1,0.1-1.9,0.3-2.9,0.4c-14.9,1.8-29.6,4.6-44,8.5
				c-316.1-117.2-665.5-111.1-978.1,18.3V986.2C1875.7,850.2,2244.4,850.2,2572.6,986.2z"/>
			<path class="st25" d="M2575.2,982.9c0,449.1,0,898.3,0,1347.4c-1.3,0.2-2.6,0.4-3.9,0.6c-13.2,1.5-26.1,3.8-38.8,6.9
				c-317.2-118.8-668.3-113.3-982.3,16.8V982.9C1878.3,847,2247,847,2575.2,982.9z"/>
			
				<linearGradient id="SVGID_43_" gradientUnits="userSpaceOnUse" x1="2065.1836" y1="2386.8796" x2="2065.1836" y2="2191.0342" gradientTransform="matrix(1 0 0 1 7.520000e-02 0)">
				<stop  offset="0" style="stop-color:#FFFFFF"/>
				<stop  offset="1" style="stop-color:#E7ECF9"/>
			</linearGradient>
			<path class="st43" d="M2577.8,979.6c0,450.1,0,900.2,0,1350.4c-2.7,0.3-5.5,0.7-8.2,1.1c-10.2,1.2-20.2,2.9-30.1,5.1
				c-318.3-120.5-671.2-115.5-986.7,15.1V979.6C1880.9,843.7,2249.6,843.7,2577.8,979.6z"/>
			<path class="st25" d="M2580.3,976.3c0,451.1,0,902.2,0,1353.4c-3.4,0.3-6.8,0.8-10.1,1.3c-7.9,0.9-15.7,2.2-23.4,3.7
				c-319.6-122.4-674.4-118-991.4,13.3V976.3C1883.5,840.4,2252.2,840.4,2580.3,976.3z"/>
			
				<linearGradient id="SVGID_44_" gradientUnits="userSpaceOnUse" x1="2070.3501" y1="2386.8796" x2="2070.3501" y2="2191.0342" gradientTransform="matrix(1 0 0 1 7.520000e-02 0)">
				<stop  offset="0" style="stop-color:#FFFFFF"/>
				<stop  offset="1" style="stop-color:#E7ECF9"/>
			</linearGradient>
			<path class="st44" d="M2582.9,973c0,452.1,0,904.3,0,1356.4c-4.7,0.4-9.4,1-14,1.7c-4.9,0.6-9.7,1.3-14.6,2.1
				c-320.9-124.4-677.8-120.6-996.4,11.4V973C1886.1,837.1,2254.8,837.1,2582.9,973z"/>
			<path class="st25" d="M2585.5,969.7c0,453.2,0,906.3,0,1359.5c-5.3,0.4-10.6,1-15.9,1.8c-2.5,0.3-5,0.6-7.5,1
				c-322.2-126.4-681.3-123.3-1001.6,9.4V969.7C1888.7,833.8,2257.4,833.8,2585.5,969.7z"/>
			
				<linearGradient id="SVGID_45_" gradientUnits="userSpaceOnUse" x1="2075.5166" y1="2386.8796" x2="2075.5166" y2="2191.0344" gradientTransform="matrix(1 0 0 1 7.520000e-02 0)">
				<stop  offset="0" style="stop-color:#FFFFFF"/>
				<stop  offset="1" style="stop-color:#E7ECF9"/>
			</linearGradient>
			<path class="st45" d="M2588.1,966.4c0,454.2,0,908.4,0,1362.6c-6,0.3-11.9,1-17.8,1.9c-323.6-128.7-685-126.3-1007.2,7.2V966.4
				C1891.2,830.5,2259.9,830.5,2588.1,966.4z"/>
			<path class="st25" d="M2590.7,963.1c0,455.3,0,910.5,0,1365.8c-4.1,0.2-8.2,0.5-12.2,0.9c-325.1-130.9-688.7-129.3-1012.8,5
				V963.1C1893.8,827.2,2262.5,827.2,2590.7,963.1z"/>
			
				<linearGradient id="SVGID_46_" gradientUnits="userSpaceOnUse" x1="2080.6829" y1="2197.4448" x2="2080.6829" y2="2324.8838" gradientTransform="matrix(1 0 0 1 7.520000e-02 0)">
				<stop  offset="0" style="stop-color:#FFFFFF"/>
				<stop  offset="1" style="stop-color:#E7ECF9"/>
			</linearGradient>
			<path class="st46" d="M2593.3,959.8c0,456.3,0,912.7,0,1369c-2,0.1-4,0.1-6,0.3c-326.6-133.5-692.8-132.7-1019,2.4V959.8
				C1896.4,823.9,2265.1,823.9,2593.3,959.8z"/>
			<g>
				<g>
					<linearGradient id="SVGID_47_" gradientUnits="userSpaceOnUse" x1="1564.7123" y1="1591.4377" x2="2816.4653" y2="1591.4377">
						<stop  offset="0" style="stop-color:#FFFFFF"/>
						<stop  offset="1" style="stop-color:#E7ECF9"/>
					</linearGradient>
					<path class="st47" d="M2593.1,2328.3c-328.1-135.9-696.8-135.9-1025,0c0-457.2,0-914.5,0-1371.7
						c328.1-135.9,696.8-135.9,1025,0C2593.1,1413.8,2593.1,1871,2593.1,2328.3z"/>
				</g>
			</g>
			<g>
				<path class="st48" d="M1660.4,1429.4c-1.7,0-3.3-1.1-3.9-2.7c-0.8-2.1,0.4-4.5,2.5-5.3c134.3-47.5,276.2-71.6,421.5-71.6
					c145.4,0,287.2,24.1,421.5,71.6c2.1,0.8,3.3,3.1,2.5,5.3c-0.8,2.1-3.1,3.3-5.3,2.5c-270.1-95.5-567.5-95.5-837.6,0
					C1661.3,1429.4,1660.8,1429.4,1660.4,1429.4z"/>
			</g>
			<g>
				<path class="st48" d="M2500.7,1595.9c-0.5,0-0.9-0.1-1.4-0.2c-270.1-95.5-567.5-95.5-837.6,0c-2.1,0.8-4.5-0.4-5.3-2.5
					c-0.8-2.1,0.4-4.5,2.5-5.3c134.3-47.5,276.2-71.6,421.5-71.6c145.4,0,287.2,24.1,421.5,71.6c2.1,0.8,3.3,3.1,2.5,5.3
					C2504,1594.8,2502.4,1595.9,2500.7,1595.9z"/>
			</g>
			<g>
				<path class="st48" d="M2500.7,1762.3c-0.5,0-0.9-0.1-1.4-0.2c-270.1-95.5-567.5-95.5-837.6,0c-2.1,0.8-4.5-0.4-5.3-2.5
					c-0.8-2.1,0.4-4.5,2.5-5.3c134.3-47.5,276.2-71.6,421.5-71.6c145.4,0,287.2,24.1,421.5,71.6c2.1,0.8,3.3,3.1,2.5,5.3
					C2504,1761.2,2502.4,1762.3,2500.7,1762.3z"/>
			</g>
			<g>
				<path class="st48" d="M2500.7,1928.7c-0.5,0-0.9-0.1-1.4-0.2c-270.1-95.5-567.5-95.5-837.6,0c-2.1,0.8-4.5-0.4-5.3-2.5
					c-0.8-2.1,0.4-4.5,2.5-5.3c134.3-47.5,276.2-71.6,421.5-71.6c145.4,0,287.2,24.1,421.5,71.6c2.1,0.8,3.3,3.1,2.5,5.3
					C2504,1927.7,2502.4,1928.7,2500.7,1928.7z"/>
			</g>
			<g>
				<path class="st48" d="M2500.7,2095.2c-0.5,0-0.9-0.1-1.4-0.2c-270.1-95.5-567.5-95.5-837.6,0c-2.1,0.8-4.5-0.4-5.3-2.5
					c-0.8-2.1,0.4-4.5,2.5-5.3c134.3-47.5,276.2-71.6,421.5-71.6c145.4,0,287.2,24.1,421.5,71.6c2.1,0.8,3.3,3.1,2.5,5.3
					C2504,2094.1,2502.4,2095.2,2500.7,2095.2z"/>
			</g>
			<g>
				<g>
					<linearGradient id="SVGID_48_" gradientUnits="userSpaceOnUse" x1="2600.5798" y1="1591.4377" x2="3618.9946" y2="1591.4377">
						<stop  offset="0" style="stop-color:#FFFFFF"/>
						<stop  offset="1" style="stop-color:#E7ECF9"/>
					</linearGradient>
					<path class="st49" d="M3618,2328.3c-328.1-135.9-696.8-135.9-1025,0c0-457.2,0-914.5,0-1371.7c328.1-135.9,696.8-135.9,1025,0
						C3618,1413.8,3618,1871,3618,2328.3z"/>
				</g>
			</g>
			<g>
				<path class="st48" d="M3517,1096.6c-0.5,0-0.9-0.1-1.4-0.2c-270.1-95.5-567.5-95.5-837.6,0c-2.1,0.8-4.5-0.4-5.3-2.5
					c-0.8-2.1,0.4-4.5,2.5-5.3c134.3-47.5,276.2-71.6,421.6-71.6s287.2,24.1,421.5,71.6c2.1,0.8,3.3,3.1,2.5,5.3
					C3520.3,1095.5,3518.7,1096.6,3517,1096.6z"/>
			</g>
			<g>
				<path class="st48" d="M3517,1263c-0.5,0-0.9-0.1-1.4-0.2c-270.1-95.5-567.5-95.5-837.6,0c-2.1,0.8-4.5-0.4-5.3-2.5
					c-0.8-2.1,0.4-4.5,2.5-5.3c134.3-47.5,276.2-71.6,421.6-71.6s287.2,24.1,421.5,71.6c2.1,0.8,3.3,3.1,2.5,5.3
					C3520.3,1262,3518.7,1263,3517,1263z"/>
			</g>
			<g>
				<path class="st48" d="M1660.9,1096.6c0.5,0,0.9-0.1,1.4-0.2c270.1-95.5,567.5-95.5,837.6,0c2.1,0.8,4.5-0.4,5.3-2.5
					c0.8-2.1-0.4-4.5-2.5-5.3c-134.3-47.5-276.2-71.6-421.5-71.6c-145.4,0-287.2,24.1-421.5,71.6c-2.1,0.8-3.3,3.1-2.5,5.3
					C1657.6,1095.5,1659.2,1096.6,1660.9,1096.6z"/>
			</g>
			<g>
				<path class="st48" d="M1660.9,1263c0.5,0,0.9-0.1,1.4-0.2c270.1-95.5,567.5-95.5,837.6,0c2.1,0.8,4.5-0.4,5.3-2.5
					c0.8-2.1-0.4-4.5-2.5-5.3c-134.3-47.5-276.2-71.6-421.5-71.6c-145.4,0-287.2,24.1-421.5,71.6c-2.1,0.8-3.3,3.1-2.5,5.3
					C1657.6,1262,1659.2,1263,1660.9,1263z"/>
			</g>
			<g>
				<path class="st48" d="M3517,1429.4c-0.5,0-0.9-0.1-1.4-0.2c-270.1-95.5-567.5-95.5-837.6,0c-2.1,0.8-4.5-0.4-5.3-2.5
					c-0.8-2.1,0.4-4.5,2.5-5.3c134.3-47.5,276.2-71.6,421.6-71.6s287.2,24.1,421.5,71.6c2.1,0.8,3.3,3.1,2.5,5.3
					C3520.3,1428.4,3518.7,1429.4,3517,1429.4z"/>
			</g>
			<g>
				<path class="st48" d="M3517,1595.9c-0.5,0-0.9-0.1-1.4-0.2c-270.1-95.5-567.5-95.5-837.6,0c-2.1,0.8-4.5-0.4-5.3-2.5
					c-0.8-2.1,0.4-4.5,2.5-5.3c134.3-47.5,276.2-71.6,421.6-71.6s287.2,24.1,421.5,71.6c2.1,0.8,3.3,3.1,2.5,5.3
					C3520.3,1594.8,3518.7,1595.9,3517,1595.9z"/>
			</g>
			<g>
				<path class="st48" d="M3517,1762.3c-0.5,0-0.9-0.1-1.4-0.2c-270.1-95.5-567.5-95.5-837.6,0c-2.1,0.8-4.5-0.4-5.3-2.5
					c-0.8-2.1,0.4-4.5,2.5-5.3c134.3-47.5,276.2-71.6,421.6-71.6s287.2,24.1,421.5,71.6c2.1,0.8,3.3,3.1,2.5,5.3
					C3520.3,1761.2,3518.7,1762.3,3517,1762.3z"/>
			</g>
			<g>
				<path class="st48" d="M3517,1928.7c-0.5,0-0.9-0.1-1.4-0.2c-270.1-95.5-567.5-95.5-837.6,0c-2.1,0.8-4.5-0.4-5.3-2.5
					c-0.8-2.1,0.4-4.5,2.5-5.3c134.3-47.5,276.2-71.6,421.6-71.6s287.2,24.1,421.5,71.6c2.1,0.8,3.3,3.1,2.5,5.3
					C3520.3,1927.7,3518.7,1928.7,3517,1928.7z"/>
			</g>
			<g>
				<path class="st48" d="M3517,2095.2c-0.5,0-0.9-0.1-1.4-0.2c-270.1-95.5-567.5-95.5-837.6,0c-2.1,0.8-4.5-0.4-5.3-2.5
					c-0.8-2.1,0.4-4.5,2.5-5.3c134.3-47.5,276.2-71.6,421.6-71.6s287.2,24.1,421.5,71.6c2.1,0.8,3.3,3.1,2.5,5.3
					C3520.3,2094.1,3518.7,2095.2,3517,2095.2z"/>
			</g>
		</g>
		<g>
			<g>
				<g>
					<g>
						<linearGradient id="SVGID_49_" gradientUnits="userSpaceOnUse" x1="2078.1748" y1="876.0542" x2="2078.1748" y2="1170.6838">
							<stop  offset="0" style="stop-color:#FFC1C2"/>
							<stop  offset="1" style="stop-color:#FE958F"/>
						</linearGradient>
						<path class="st50" d="M2080.9,912.1h-5.5c-0.1,0-0.2-0.1-0.2-0.2v-20.5c0-0.1,0.1-0.2,0.2-0.2h5.5c0.1,0,0.2,0.1,0.2,0.2v20.5
							C2081.2,912,2081.1,912.1,2080.9,912.1z"/>
					</g>
				</g>
				<g>
					<g>
						<linearGradient id="SVGID_50_" gradientUnits="userSpaceOnUse" x1="2029.7247" y1="876.3134" x2="2029.7247" y2="1168.9583">
							<stop  offset="0" style="stop-color:#FFC1C2"/>
							<stop  offset="1" style="stop-color:#FE958F"/>
						</linearGradient>
						<path class="st51" d="M2037.3,922.3l-4.8,2.7c-0.1,0.1-0.3,0-0.3-0.1l-10.3-17.8c-0.1-0.1,0-0.3,0.1-0.3l4.8-2.7
							c0.1-0.1,0.3,0,0.3,0.1l10.3,17.8C2037.5,922.1,2037.5,922.2,2037.3,922.3z"/>
					</g>
				</g>
				<g>
					<g>
						<linearGradient id="SVGID_51_" gradientUnits="userSpaceOnUse" x1="1994.2567" y1="876.727" x2="1994.2567" y2="1168.6766">
							<stop  offset="0" style="stop-color:#FFC1C2"/>
							<stop  offset="1" style="stop-color:#FE958F"/>
						</linearGradient>
						<path class="st52" d="M2004.7,952.9l-2.7,4.8c-0.1,0.1-0.2,0.2-0.3,0.1l-17.8-10.3c-0.1-0.1-0.2-0.2-0.1-0.3l2.7-4.8
							c0.1-0.1,0.2-0.2,0.3-0.1l17.8,10.3C2004.7,952.6,2004.8,952.8,2004.7,952.9z"/>
					</g>
				</g>
				<g>
					<g>
						<linearGradient id="SVGID_52_" gradientUnits="userSpaceOnUse" x1="1981.2747" y1="876.0564" x2="1981.2747" y2="1170.6812">
							<stop  offset="0" style="stop-color:#FFC1C2"/>
							<stop  offset="1" style="stop-color:#FE958F"/>
						</linearGradient>
						<path class="st53" d="M1991.8,995.7v5.5c0,0.1-0.1,0.2-0.2,0.2H1971c-0.1,0-0.2-0.1-0.2-0.2v-5.5c0-0.1,0.1-0.2,0.2-0.2h20.5
							C1991.7,995.5,1991.8,995.6,1991.8,995.7z"/>
					</g>
				</g>
				<g>
					<g>
						<linearGradient id="SVGID_53_" gradientUnits="userSpaceOnUse" x1="1994.2567" y1="877.6089" x2="1994.2567" y2="1169.5586">
							<stop  offset="0" style="stop-color:#FFC1C2"/>
							<stop  offset="1" style="stop-color:#FE958F"/>
						</linearGradient>
						<path class="st54" d="M2002,1039.3l2.7,4.8c0.1,0.1,0,0.3-0.1,0.3l-17.8,10.3c-0.1,0.1-0.3,0-0.3-0.1l-2.7-4.8
							c-0.1-0.1,0-0.3,0.1-0.3l17.8-10.3C2001.8,1039.2,2001.9,1039.2,2002,1039.3z"/>
					</g>
				</g>
				<g>
					<g>
						<linearGradient id="SVGID_54_" gradientUnits="userSpaceOnUse" x1="2162.093" y1="877.6074" x2="2162.093" y2="1169.557">
							<stop  offset="0" style="stop-color:#FFC1C2"/>
							<stop  offset="1" style="stop-color:#FE958F"/>
						</linearGradient>
						<path class="st55" d="M2151.6,1044.1l2.7-4.8c0.1-0.1,0.2-0.2,0.3-0.1l17.8,10.3c0.1,0.1,0.2,0.2,0.1,0.3l-2.7,4.8
							c-0.1,0.1-0.2,0.2-0.3,0.1l-17.8-10.3C2151.6,1044.3,2151.6,1044.2,2151.6,1044.1z"/>
					</g>
				</g>
				<g>
					<g>
						<linearGradient id="SVGID_55_" gradientUnits="userSpaceOnUse" x1="2175.0752" y1="876.0564" x2="2175.0752" y2="1170.6812">
							<stop  offset="0" style="stop-color:#FFC1C2"/>
							<stop  offset="1" style="stop-color:#FE958F"/>
						</linearGradient>
						<path class="st56" d="M2164.6,1001.2v-5.5c0-0.1,0.1-0.2,0.2-0.2h20.5c0.1,0,0.2,0.1,0.2,0.2v5.5c0,0.1-0.1,0.2-0.2,0.2h-20.5
							C2164.7,1001.5,2164.6,1001.4,2164.6,1001.2z"/>
					</g>
				</g>
				<g>
					<g>
						<linearGradient id="SVGID_56_" gradientUnits="userSpaceOnUse" x1="2162.093" y1="876.727" x2="2162.093" y2="1168.6765">
							<stop  offset="0" style="stop-color:#FFC1C2"/>
							<stop  offset="1" style="stop-color:#FE958F"/>
						</linearGradient>
						<path class="st57" d="M2154.4,957.7l-2.7-4.8c-0.1-0.1,0-0.3,0.1-0.3l17.8-10.3c0.1-0.1,0.3,0,0.3,0.1l2.7,4.8
							c0.1,0.1,0,0.3-0.1,0.3l-17.8,10.3C2154.6,957.8,2154.4,957.8,2154.4,957.7z"/>
					</g>
				</g>
				<g>
					<g>
						<linearGradient id="SVGID_57_" gradientUnits="userSpaceOnUse" x1="2126.625" y1="876.3134" x2="2126.625" y2="1168.9583">
							<stop  offset="0" style="stop-color:#FFC1C2"/>
							<stop  offset="1" style="stop-color:#FE958F"/>
						</linearGradient>
						<path class="st58" d="M2123.8,925l-4.8-2.7c-0.1-0.1-0.2-0.2-0.1-0.3l10.3-17.8c0.1-0.1,0.2-0.2,0.3-0.1l4.8,2.7
							c0.1,0.1,0.2,0.2,0.1,0.3l-10.3,17.8C2124,925,2123.9,925.1,2123.8,925z"/>
					</g>
				</g>
			</g>
			<linearGradient id="SVGID_58_" gradientUnits="userSpaceOnUse" x1="2018.1031" y1="1008.4839" x2="2138.2466" y2="1008.4839">
				<stop  offset="0" style="stop-color:#FFE2E4"/>
				<stop  offset="1" style="stop-color:#FFC1C2"/>
			</linearGradient>
			<path class="st59" d="M2078,930.1c-32.3,0.1-59.1,26.3-59.9,58.7c-0.3,12.2,3.1,23.6,9.1,33.2c12.1,19.4,18.1,41.9,17.8,64.8
				h66.3v-2.3c0-22,6-43.7,17.8-62.4c5.8-9.2,9.2-20.2,9.2-31.9C2138.2,957,2111.3,930.1,2078,930.1z"/>
			<linearGradient id="SVGID_59_" gradientUnits="userSpaceOnUse" x1="2045.0103" y1="1109.6803" x2="2111.3396" y2="1109.6803">
				<stop  offset="0" style="stop-color:#435AC2"/>
				<stop  offset="1" style="stop-color:#0F24A4"/>
			</linearGradient>
			<path class="st60" d="M2045,1086.8v23.5c0,3.2,2.6,5.8,5.8,5.8h5.4v3.8c0,7,5.7,12.7,12.7,12.7h18.6c7,0,12.7-5.7,12.7-12.7v-3.8
				h5.4c3.2,0,5.8-2.6,5.8-5.8v-23.5H2045z"/>
			<g>
				
					<linearGradient id="SVGID_60_" gradientUnits="userSpaceOnUse" x1="17341.8086" y1="1044.0963" x2="17399.3438" y2="1044.0963" gradientTransform="matrix(1 0 0 1 -15292.4023 0)">
					<stop  offset="0" style="stop-color:#FE958F"/>
					<stop  offset="1" style="stop-color:#F77C77"/>
				</linearGradient>
				<path class="st61" d="M2064.3,1087.4c0.1,0,0.2,0,0.3,0c0.9-0.1,1.5-1,1.4-1.9l-12.7-79.3l15.6,9.9c0.8,0.5,1.7,0.3,2.2-0.5
					l7.1-10.4l7.1,10.4c0.5,0.7,1.5,0.9,2.2,0.5l15.6-9.9l-12.7,79.3c-0.1,0.9,0.5,1.7,1.4,1.9c0.9,0.1,1.7-0.5,1.9-1.4l13.3-82.9
					c0.1-0.6-0.2-1.3-0.7-1.6c-0.5-0.4-1.2-0.4-1.8,0l-17.3,11l-7.5-11c-0.6-0.9-2.1-0.9-2.7,0l-7.5,11l-17.3-11
					c-0.5-0.3-1.2-0.3-1.8,0c-0.5,0.4-0.8,1-0.7,1.6l13.3,82.9C2062.8,1086.9,2063.5,1087.4,2064.3,1087.4z"/>
			</g>
		</g>
		<g>
			<linearGradient id="SVGID_61_" gradientUnits="userSpaceOnUse" x1="1066.8586" y1="929.3721" x2="1310.1029" y2="929.3721">
				<stop  offset="0" style="stop-color:#FFC1C2"/>
				<stop  offset="1" style="stop-color:#FE958F"/>
			</linearGradient>
			<path class="st62" d="M1149.9,976.7c-15.3-26.3-24.3-90.2-24.6-175.2c0-4.5,1.8-8.9,5.1-12c1.9-1.8,5-3.9,9.4-3.7
				c20.5,1,82.2,15.1,104.3,20.4l11.3-46.5c-8.6-2.1-84.5-20.3-113.2-21.7c-16.6-0.8-32.5,5.2-44.7,16.9
				c-12.7,12.1-19.9,29.1-19.8,46.7c0.3,66.9,5.9,155.7,31.1,199.1c54.4,93.4,201,118.9,207.2,120l7.9-47.2
				C1322.3,1073.4,1193.1,1051,1149.9,976.7z"/>
			<linearGradient id="SVGID_62_" gradientUnits="userSpaceOnUse" x1="1795.7289" y1="929.3739" x2="1538.6887" y2="929.3739">
				<stop  offset="0" style="stop-color:#FFC1C2"/>
				<stop  offset="1" style="stop-color:#FE958F"/>
			</linearGradient>
			<path class="st63" d="M1774.8,755c-12.2-11.7-28.1-17.7-44.7-16.9c-28.7,1.4-104.7,19.6-113.2,21.7l11.3,46.5
				c22-5.3,83.7-19.4,104.3-20.4c4.3-0.2,7.5,1.9,9.4,3.7c3.2,3.1,5.1,7.5,5.1,12c-0.3,85-9.3,148.9-24.6,175.2
				c-43,74-172.5,96.6-173.7,96.8l7.9,47.2c6.2-1,152.8-26.5,207.2-120c25.3-43.4,30.9-132.2,31.1-199.1
				C1794.7,784.1,1787.4,767.1,1774.8,755z"/>
			<linearGradient id="SVGID_63_" gradientUnits="userSpaceOnUse" x1="1391.3119" y1="1271.2694" x2="1480.7222" y2="1271.2694">
				<stop  offset="0" style="stop-color:#FFE2E4"/>
				<stop  offset="1" style="stop-color:#FFC1C2"/>
			</linearGradient>
			<polygon class="st64" points="1469.5,1113.6 1402.5,1113.6 1391.3,1428.9 1480.7,1428.9 			"/>
			<linearGradient id="SVGID_64_" gradientUnits="userSpaceOnUse" x1="1339.3812" y1="1425.8933" x2="1831.7993" y2="1425.8933">
				<stop  offset="0" style="stop-color:#FFC1C2"/>
				<stop  offset="1" style="stop-color:#FE958F"/>
			</linearGradient>
			<path class="st65" d="M1511.9,1400H1366c-14.3,0-25.9,11.6-25.9,25.9v9.2c0,9.2,7.5,16.7,16.7,16.7H1521
				c9.2,0,16.7-7.5,16.7-16.7v-9.2C1537.7,1411.6,1526.1,1400,1511.9,1400z"/>
			<linearGradient id="SVGID_65_" gradientUnits="userSpaceOnUse" x1="1196.2771" y1="1461.4087" x2="1639.0682" y2="1461.4087">
				<stop  offset="0" style="stop-color:#FFC1C2"/>
				<stop  offset="1" style="stop-color:#FE958F"/>
			</linearGradient>
			<path class="st66" d="M1560.8,1422.2h-243.7c-33.5,0-60.6,27.1-60.6,60.6v8.9c0,5,4,9,9,9h347c5,0,9-4,9-9v-8.9
				C1621.4,1449.3,1594.3,1422.2,1560.8,1422.2z"/>
			<linearGradient id="SVGID_66_" gradientUnits="userSpaceOnUse" x1="1212.6017" y1="948.9948" x2="1659.4321" y2="948.9948">
				<stop  offset="0" style="stop-color:#FFE2E4"/>
				<stop  offset="1" style="stop-color:#FFC1C2"/>
			</linearGradient>
			<path class="st67" d="M1658.3,676.4H1436h-222.3c0,0-13,305.1,49.5,411.5c65.9,112.3,172.8,133.7,172.8,133.7
				s106.8-21.4,172.8-133.7C1671.3,981.5,1658.3,676.4,1658.3,676.4z"/>
			<linearGradient id="SVGID_67_" gradientUnits="userSpaceOnUse" x1="1196.4362" y1="661.2224" x2="2177.4146" y2="661.2224">
				<stop  offset="0" style="stop-color:#FFC1C2"/>
				<stop  offset="1" style="stop-color:#FE958F"/>
			</linearGradient>
			<path class="st68" d="M1665.8,620.1h-459.5c-9.8,0-17.7,7.9-17.7,17.7v46.9c0,9.8,7.9,17.7,17.7,17.7h459.5
				c9.8,0,17.7-7.9,17.7-17.7v-46.9C1683.5,628,1675.6,620.1,1665.8,620.1z"/>
			<linearGradient id="SVGID_68_" gradientUnits="userSpaceOnUse" x1="1314.797" y1="894.1308" x2="1557.4618" y2="894.1308">
				<stop  offset="0" style="stop-color:#FFC1C2"/>
				<stop  offset="1" style="stop-color:#FE958F"/>
			</linearGradient>
			<path class="st69" d="M1557.6,873.2c4.3-4.2,1.9-11.5-4-12.3l-73-10.6c-2.4-0.3-4.4-1.8-5.4-4l-32.6-66.1c-2.7-5.4-10.3-5.4-13,0
				l-32.6,66.1c-1.1,2.1-3.1,3.6-5.4,4l-73,10.6c-5.9,0.9-8.3,8.2-4,12.3l52.8,51.5c1.7,1.7,2.5,4.1,2.1,6.4l-12.5,72.7
				c-1,5.9,5.2,10.4,10.5,7.6l65.3-34.3c2.1-1.1,4.6-1.1,6.7,0l65.3,34.3c5.3,2.8,11.5-1.7,10.5-7.6l-12.5-72.7
				c-0.4-2.3,0.4-4.7,2.1-6.4L1557.6,873.2z"/>
		</g>
		<g>
			<g>
				<rect x="1252.7" y="1520.1" class="st25" width="762.5" height="214.1"/>
			</g>
			<g>
				<linearGradient id="SVGID_69_" gradientUnits="userSpaceOnUse" x1="1179.8743" y1="1627.1086" x2="2033.3903" y2="1627.1086">
					<stop  offset="0" style="stop-color:#7A8FD8"/>
					<stop  offset="1" style="stop-color:#435AC2"/>
				</linearGradient>
				<path class="st70" d="M1252.7,1730.1v-205.9c0-2.3,1.9-4.1,4.1-4.1h772.5c2.3,0,4.1-1.8,4.1-4.1v-11.2c0-2.3-1.9-4.1-4.1-4.1
					h-785.7c-35.2,0-63.7,28.1-63.7,62.9v127.2c0,34.7,28.5,62.9,63.7,62.9h785.7c2.3,0,4.1-1.8,4.1-4.1v-11.2
					c0-2.3-1.9-4.1-4.1-4.1h-772.5C1254.5,1734.2,1252.7,1732.3,1252.7,1730.1z"/>
			</g>
			<g>
				<path d="M2006.4,1547.8h-734.9c-0.4,0-0.7-0.3-0.7-0.7s0.3-0.7,0.7-0.7h734.9c0.4,0,0.7,0.3,0.7,0.7
					S2006.8,1547.8,2006.4,1547.8z"/>
			</g>
			<g>
				<path d="M2006.4,1570.6h-734.9c-0.4,0-0.7-0.3-0.7-0.7s0.3-0.7,0.7-0.7h734.9c0.4,0,0.7,0.3,0.7,0.7
					S2006.8,1570.6,2006.4,1570.6z"/>
			</g>
			<g>
				<path d="M2006.4,1593.4h-734.9c-0.4,0-0.7-0.3-0.7-0.7s0.3-0.7,0.7-0.7h734.9c0.4,0,0.7,0.3,0.7,0.7
					S2006.8,1593.4,2006.4,1593.4z"/>
			</g>
			<g>
				<path d="M2006.4,1616.2h-734.9c-0.4,0-0.7-0.3-0.7-0.7s0.3-0.7,0.7-0.7h734.9c0.4,0,0.7,0.3,0.7,0.7
					S2006.8,1616.2,2006.4,1616.2z"/>
			</g>
			<g>
				<path d="M2006.4,1639h-734.9c-0.4,0-0.7-0.3-0.7-0.7s0.3-0.7,0.7-0.7h734.9c0.4,0,0.7,0.3,0.7,0.7S2006.8,1639,2006.4,1639z"/>
			</g>
			<g>
				<path d="M2006.4,1661.8h-734.9c-0.4,0-0.7-0.3-0.7-0.7s0.3-0.7,0.7-0.7h734.9c0.4,0,0.7,0.3,0.7,0.7
					S2006.8,1661.8,2006.4,1661.8z"/>
			</g>
			<g>
				<path d="M2006.4,1684.6h-734.9c-0.4,0-0.7-0.3-0.7-0.7s0.3-0.7,0.7-0.7h734.9c0.4,0,0.7,0.3,0.7,0.7
					S2006.8,1684.6,2006.4,1684.6z"/>
			</g>
			<g>
				<path d="M2006.4,1707.3h-734.9c-0.4,0-0.7-0.3-0.7-0.7c0-0.4,0.3-0.7,0.7-0.7h734.9c0.4,0,0.7,0.3,0.7,0.7
					C2007.1,1707,2006.8,1707.3,2006.4,1707.3z"/>
			</g>
		</g>
		<g>
			<g>
				<g>
					<rect x="1138.4" y="2185.2" class="st25" width="1401" height="398.5"/>
				</g>
				<g>
					<linearGradient id="SVGID_70_" gradientUnits="userSpaceOnUse" x1="1004.6693" y1="2384.4292" x2="2572.8516" y2="2384.4292">
						<stop  offset="0" style="stop-color:#435AC2"/>
						<stop  offset="1" style="stop-color:#0F24A4"/>
					</linearGradient>
					<path class="st71" d="M1138.4,2576.1v-383.3c0-4.2,3.4-7.6,7.6-7.6h1419.3c4.2,0,7.6-3.4,7.6-7.6v-20.9c0-4.2-3.4-7.6-7.6-7.6
						H1121.7c-64.6,0-117,52.4-117,117v236.7c0,64.6,52.4,117,117,117h1443.6c4.2,0,7.6-3.4,7.6-7.6v-20.9c0-4.2-3.4-7.6-7.6-7.6
						H1146C1141.8,2583.7,1138.4,2580.3,1138.4,2576.1z"/>
				</g>
				<g>
					<path d="M2505.8,2221H1195.5c-0.3,0-0.6-0.3-0.6-0.6s0.3-0.6,0.6-0.6h1310.3c0.3,0,0.6,0.3,0.6,0.6S2506.2,2221,2505.8,2221z"
						/>
				</g>
				<g>
					<path d="M2505.8,2267.1H1195.5c-0.3,0-0.6-0.3-0.6-0.6c0-0.3,0.3-0.6,0.6-0.6h1310.3c0.3,0,0.6,0.3,0.6,0.6
						C2506.5,2266.8,2506.2,2267.1,2505.8,2267.1z"/>
				</g>
				<g>
					<path d="M2505.8,2313.2H1195.5c-0.3,0-0.6-0.3-0.6-0.6s0.3-0.6,0.6-0.6h1310.3c0.3,0,0.6,0.3,0.6,0.6
						S2506.2,2313.2,2505.8,2313.2z"/>
				</g>
				<g>
					<path d="M2505.8,2359.2H1195.5c-0.3,0-0.6-0.3-0.6-0.6s0.3-0.6,0.6-0.6h1310.3c0.3,0,0.6,0.3,0.6,0.6
						S2506.2,2359.2,2505.8,2359.2z"/>
				</g>
				<g>
					<path d="M2505.8,2405.3H1195.5c-0.3,0-0.6-0.3-0.6-0.6s0.3-0.6,0.6-0.6h1310.3c0.3,0,0.6,0.3,0.6,0.6
						S2506.2,2405.3,2505.8,2405.3z"/>
				</g>
				<g>
					<path d="M2505.8,2451.3H1195.5c-0.3,0-0.6-0.3-0.6-0.6c0-0.3,0.3-0.6,0.6-0.6h1310.3c0.3,0,0.6,0.3,0.6,0.6
						C2506.5,2451.1,2506.2,2451.3,2505.8,2451.3z"/>
				</g>
				<g>
					<path d="M2505.8,2497.4H1195.5c-0.3,0-0.6-0.3-0.6-0.6c0-0.3,0.3-0.6,0.6-0.6h1310.3c0.3,0,0.6,0.3,0.6,0.6
						C2506.5,2497.1,2506.2,2497.4,2505.8,2497.4z"/>
				</g>
				<g>
					<path d="M2505.8,2543.5H1195.5c-0.3,0-0.6-0.3-0.6-0.6c0-0.3,0.3-0.6,0.6-0.6h1310.3c0.3,0,0.6,0.3,0.6,0.6
						C2506.5,2543.2,2506.2,2543.5,2505.8,2543.5z"/>
				</g>
			</g>
			<linearGradient id="SVGID_71_" gradientUnits="userSpaceOnUse" x1="1775.9279" y1="2451.988" x2="1330.8134" y2="2250.0581">
				<stop  offset="0" style="stop-color:#FFE2E4"/>
				<stop  offset="1" style="stop-color:#FFC1C2"/>
			</linearGradient>
			<polygon class="st72" points="1491.9,2220.4 1491.9,2414.6 1491.9,2414.7 1491.9,2487.9 1560.2,2414.7 1560.3,2414.7 
				1628.6,2487.9 1628.6,2414.7 1628.6,2414.6 1628.6,2220.4 			"/>
		</g>
		<g>
			<g>
				<g>
					
						<rect x="1160.7" y="1783.9" transform="matrix(-1 -1.224647e-16 1.224647e-16 -1 3408.231 3902.6367)" class="st25" width="1086.8" height="334.9"/>
				</g>
				<g>
					
						<linearGradient id="SVGID_72_" gradientUnits="userSpaceOnUse" x1="14688.7217" y1="1951.3182" x2="15905.209" y2="1951.3182" gradientTransform="matrix(-1 0 0 1 17039.9805 0)">
						<stop  offset="0" style="stop-color:#7A8FD8"/>
						<stop  offset="1" style="stop-color:#435AC2"/>
					</linearGradient>
					<path class="st73" d="M2247.5,2112.4v-322.1c0-3.5-2.6-6.4-5.9-6.4h-1101c-3.3,0-5.9-2.9-5.9-6.4v-17.6c0-3.5,2.6-6.4,5.9-6.4
						h1119.8c50.1,0,90.8,44,90.8,98.3v198.9c0,54.3-40.6,98.3-90.8,98.3H1140.7c-3.3,0-5.9-2.9-5.9-6.4v-17.6
						c0-3.5,2.6-6.4,5.9-6.4h1101C2244.9,2118.8,2247.5,2115.9,2247.5,2112.4z"/>
				</g>
				<g>
					<path d="M1178.1,1818.5h1019c0.3,0,0.6-0.3,0.6-0.7s-0.3-0.7-0.6-0.7h-1019c-0.3,0-0.6,0.3-0.6,0.7
						S1177.8,1818.5,1178.1,1818.5z"/>
				</g>
				<g>
					<path d="M1178.1,1857.3h1019c0.3,0,0.6-0.3,0.6-0.7s-0.3-0.7-0.6-0.7h-1019c-0.3,0-0.6,0.3-0.6,0.7
						S1177.8,1857.3,1178.1,1857.3z"/>
				</g>
				<g>
					<path d="M1178.1,1896.1h1019c0.3,0,0.6-0.3,0.6-0.7s-0.3-0.7-0.6-0.7h-1019c-0.3,0-0.6,0.3-0.6,0.7
						S1177.8,1896.1,1178.1,1896.1z"/>
				</g>
				<g>
					<path d="M1178.1,1935h1019c0.3,0,0.6-0.3,0.6-0.7s-0.3-0.7-0.6-0.7h-1019c-0.3,0-0.6,0.3-0.6,0.7S1177.8,1935,1178.1,1935z"/>
				</g>
				<g>
					<path d="M1178.1,1973.8h1019c0.3,0,0.6-0.3,0.6-0.7s-0.3-0.7-0.6-0.7h-1019c-0.3,0-0.6,0.3-0.6,0.7
						S1177.8,1973.8,1178.1,1973.8z"/>
				</g>
				<g>
					<path d="M1178.1,2012.6h1019c0.3,0,0.6-0.3,0.6-0.7s-0.3-0.7-0.6-0.7h-1019c-0.3,0-0.6,0.3-0.6,0.7
						S1177.8,2012.6,1178.1,2012.6z"/>
				</g>
				<g>
					<path d="M1178.1,2051.4h1019c0.3,0,0.6-0.3,0.6-0.7s-0.3-0.7-0.6-0.7h-1019c-0.3,0-0.6,0.3-0.6,0.7
						S1177.8,2051.4,1178.1,2051.4z"/>
				</g>
				<g>
					<path d="M1178.1,2090.2h1019c0.3,0,0.6-0.3,0.6-0.7s-0.3-0.7-0.6-0.7h-1019c-0.3,0-0.6,0.3-0.6,0.7
						S1177.8,2090.2,1178.1,2090.2z"/>
				</g>
			</g>
			<linearGradient id="SVGID_73_" gradientUnits="userSpaceOnUse" x1="2166.0676" y1="1980.715" x2="1910.4817" y2="1864.7665">
				<stop  offset="0" style="stop-color:#FFE2E4"/>
				<stop  offset="1" style="stop-color:#FFC1C2"/>
			</linearGradient>
			<polygon class="st74" points="1999,1856.4 1999,1946.3 1999,1946.4 1999,1992.6 2042.2,1946.4 2042.3,1946.4 2085.4,1992.6 
				2085.4,1946.4 2085.4,1946.3 2085.4,1856.4 			"/>
		</g>
		<g>
			<polygon class="st75" points="2083.2,1401.9 2038.6,1399.5 2043.2,1314.1 2070.4,1315.6 			"/>
			<path class="st76" d="M2123.1,1275.1c5.7,35.5-1.8,70.5-23.4,77c-20.2,6.1-53.6-14.7-67.5-50.2c-14.6-37.4-5.1-64.2,24.9-72.8
				C2088.8,1220,2116.9,1236.2,2123.1,1275.1z"/>
			<path class="st48" d="M2042.6,1325.2l4.8-1.7c0,0-0.9-16.7,2.3-20.8c4.2-5.2,23.7-3.6,23.7-3.6s1.7-18.5,9.4-23.1
				c6.8-4.1,34.1-5.6,44.4,0.4c0,0,5.6-17.5-1.5-33.9c-7.9-18.1-23.4-24.5-43.2-26.5c-19.8-2.1-41.1,0.3-46.7,22.2
				c0,0-17.2,2.8-18.4,26.2C2016,1287.9,2042.6,1325.2,2042.6,1325.2z"/>
			<path class="st76" d="M2065.3,1296.2c2.3,6,0.1,12.4-4.9,14.4c-5,1.9-10.9-1.4-13.3-7.4c-2.3-6-0.1-12.4,4.9-14.4
				C2057.1,1286.9,2063,1290.2,2065.3,1296.2z"/>
			<path class="st75" d="M2418.3,1952.8l-61.1-219.2c-2.1-7.3-7.9-13.4-15.8-15.2l-3-0.7l-242.6-57.7l-38.7-9.2l-14.4,82.9l39.5,4.4
				l235.2,26.1l82.7,194.9l3.8,8.9l17-6L2418.3,1952.8z"/>
			<path class="st76" d="M2334.8,1731.1l-3.1-0.7l-235.7-52.6l-38.8-8.6l-13.1,83.3l39.6,3.7l149.1,13.8l-112.5,49.8l-8.8,3.9
				l6.2,16.9l9.3-2.7l209.4-60.7c8.1-2.4,14.7-8.9,16.7-17.7C2355.8,1746.7,2347.7,1734,2334.8,1731.1z"/>
			
				<linearGradient id="SVGID_74_" gradientUnits="userSpaceOnUse" x1="2234.45" y1="1677.4475" x2="2304.3237" y2="1725.4117" gradientTransform="matrix(-1 0 0 1 4603.2319 0)">
				<stop  offset="0" style="stop-color:#435AC2"/>
				<stop  offset="1" style="stop-color:#0F24A4"/>
			</linearGradient>
			<path class="st77" d="M2135.8,1643.1c42.1,36,193.9,39.6,224.8,70.9c31.8,32.3,52.9,201.2,52.9,201.2l-35.4,12.3
				c0,0-57.9-157.9-67.4-164.3c-9.6-6.5-214.5,13.7-266.6-17.9c-43.2-26.2-24.2-96.6-24.2-96.6L2135.8,1643.1z"/>
			
				<linearGradient id="SVGID_75_" gradientUnits="userSpaceOnUse" x1="2260.7295" y1="1674.6559" x2="2519.499" y2="1742.1611" gradientTransform="matrix(-1 0 0 1 4603.2319 0)">
				<stop  offset="0" style="stop-color:#435AC2"/>
				<stop  offset="1" style="stop-color:#0F24A4"/>
			</linearGradient>
			<path class="st78" d="M2117.4,1644c30.3,44,229.9,47.2,242.7,95c14,52.1-204.5,97.6-204.5,97.6l-11.2-35.2
				c0,0,81.3-25.9,79.8-30.3c-1.4-4.1-146.8,14.6-198.5-24.9c-40.1-30.7-24.2-96.6-24.2-96.6L2117.4,1644z"/>
			<path class="st75" d="M2055.6,1420.2l133.3,106.9l-18.8,0.2l98.6-74.5l9.1-6.9l13.9,17.2l-8.7,7.4l-93.8,80.4
				c-5.3,4.5-12.8,4.6-18.1,0.7l-0.7-0.5l-138-100.7l-15.5-11.3l23.8-31.1L2055.6,1420.2z"/>
			
				<linearGradient id="SVGID_76_" gradientUnits="userSpaceOnUse" x1="2347.2202" y1="1485.2476" x2="2414.1309" y2="1514.262" gradientTransform="matrix(-0.8042 0.5944 0.5944 0.8042 3171.3796 -1170.8848)">
				<stop  offset="0" style="stop-color:#435AC2"/>
				<stop  offset="1" style="stop-color:#0F24A4"/>
			</linearGradient>
			<path class="st79" d="M2014.3,1461.8c24.4,32.2,112.6,93.8,167.2,93.7c32.4-0.1,84.4-64.8,84.4-64.8l-18-26.4
				c0,0-44,44.6-77.8,27.2s-99.6-81.5-124.7-79C2023.4,1414.7,2003.4,1447.3,2014.3,1461.8z"/>
			
				<linearGradient id="SVGID_77_" gradientUnits="userSpaceOnUse" x1="2459.2065" y1="1508.3048" x2="2598.9541" y2="1524.293" gradientTransform="matrix(-1 0 0 1 4603.2319 0)">
				<stop  offset="0" style="stop-color:#FFC1C2"/>
				<stop  offset="1" style="stop-color:#FE958F"/>
			</linearGradient>
			<path class="st80" d="M2032.9,1382.6c0,0-75.5,125.6-52.7,254.6c0,0-5.8,25.8,86.4,17.9c92.2-7.9,96.8-20.9,96.8-20.9
				c-32.6-68.3-59.1-146-74.9-240.4C2088.5,1393.9,2054,1396.8,2032.9,1382.6z"/>
			<path class="st75" d="M2318.9,1419.8c5.1,6,2.3,20.9-9.1,33.2c-10.5,11.3-23.9,11.8-29.3,6.1
				C2268.3,1446.2,2311,1410.5,2318.9,1419.8z"/>
			<path class="st75" d="M2299.9,1416.5c-3.1-1.6-10.8,3.8-17.3,13.8c-6,9.2-6.4,17.5-3.5,19.4
				C2285.7,1453.9,2304.6,1419,2299.9,1416.5z"/>
			
				<linearGradient id="SVGID_78_" gradientUnits="userSpaceOnUse" x1="2451.2822" y1="1547.5135" x2="2633.6646" y2="1523.8275" gradientTransform="matrix(-1 0 0 1 4603.2319 0)">
				<stop  offset="0" style="stop-color:#7A8FD8"/>
				<stop  offset="1" style="stop-color:#435AC2"/>
			</linearGradient>
			<path class="st81" d="M2077.7,1392.3c0,0,5.5,75.1,25.3,155.8s46.5,133.2,46.5,133.2s-159.7,17.5-189.5-20.7
				c-26.8-34.4,32-236.3,66.8-281.6L2077.7,1392.3z"/>
			<path class="st48" d="M2132.4,1926.9l-2.1-17l0,0l4.8-66l-0.5,0.1c0,0-10.3,2.4-16-9.3c-4.2-8.6-3.6-15.2-2.9-18.1
				c0.4-0.7,0.5-1.3,0.4-1.6c-1.2-3.9-8.6-5.2-16.6-2.7c-2.6,0.8-4.9,1.9-6.9,3.1l-11,3.4l36,117.6l11.2-3.4
				C2131.4,1932.2,2132.9,1929.5,2132.4,1926.9z"/>
			<path class="st48" d="M2503.1,1970.6l-17-2.1l0,0l-62.9-20.6l0,0.5c0,0-0.2,10.6-12.9,13.3c-9.4,2-15.6-0.2-18.2-1.5
				c-0.6-0.5-1.2-0.8-1.4-0.8c-4.1,0.2-7.1,7.1-6.7,15.4c0.1,2.7,0.6,5.3,1.4,7.4l0.6,11.5l122.8-6.4l-0.6-11.7
				C2508,1972.9,2505.8,1970.7,2503.1,1970.6z"/>
			<path class="st76" d="M2069.7,1439.8l11,173.4l-12.8-13.7l123.5,23l11.2,2.1l-3.4,21.9l-11.3-1.4l-124.7-15.5
				c-6.9-0.9-12-6.3-12.8-12.9l-0.1-0.8l-18.8-172.7l-2.1-19l39-3.4L2069.7,1439.8z"/>
			<path class="st76" d="M2248.7,1639.6c-1.2,7.8-14.3,15.4-31,14.9c-15.4-0.5-24.6-10.3-23.8-18.1
				C2195.6,1618.8,2250.6,1627.7,2248.7,1639.6z"/>
			<path class="st76" d="M2238.8,1623.2c-0.8-3.4-10-5.7-21.7-4.1c-10.9,1.5-17.4,6.6-16.9,10.1
				C2201.2,1636.9,2240,1628.4,2238.8,1623.2z"/>
			
				<linearGradient id="SVGID_79_" gradientUnits="userSpaceOnUse" x1="2480.1519" y1="1524.2909" x2="2579.0408" y2="1549.7534" gradientTransform="matrix(-1 0 0 1 4603.2319 0)">
				<stop  offset="0" style="stop-color:#435AC2"/>
				<stop  offset="1" style="stop-color:#0F24A4"/>
			</linearGradient>
			<path class="st82" d="M2010.5,1437.3c-10.1,39.8,6.8,148.4,44.3,189.4c22.3,24.3,106.3,19.6,106.3,19.6l7.5-31.6
				c0,0-62.4,2.4-72.5-34.8s-8.5-141.9-27.6-159.1C2051.6,1405.6,2015.9,1415.8,2010.5,1437.3z"/>
		</g>
		<g>
			<linearGradient id="SVGID_80_" gradientUnits="userSpaceOnUse" x1="2899.9365" y1="2063.3484" x2="3952.1599" y2="2063.3484">
				<stop  offset="0" style="stop-color:#7A8FD8"/>
				<stop  offset="1" style="stop-color:#435AC2"/>
			</linearGradient>
			<path class="st83" d="M3914.5,1644.9h-976.9c-20.8,0-37.7,16.9-37.7,37.7v761.5c0,20.8,16.9,37.7,37.7,37.7h976.9
				c20.8,0,37.7-16.9,37.7-37.7v-761.5C3952.2,1661.8,3935.3,1644.9,3914.5,1644.9z"/>
			<path class="st25" d="M3843.1,1806.8H3009c-18,0-32.6,14.6-32.6,32.6v549c0,18,14.6,32.6,32.6,32.6h834.1
				c18,0,32.6-14.6,32.6-32.6v-549C3875.6,1821.4,3861.1,1806.8,3843.1,1806.8z"/>
			<linearGradient id="SVGID_81_" gradientUnits="userSpaceOnUse" x1="3039.4141" y1="1966.293" x2="3792.5159" y2="1966.293">
				<stop  offset="0" style="stop-color:#FFE2E4"/>
				<stop  offset="1" style="stop-color:#A4B8EA"/>
			</linearGradient>
			<rect x="3384.9" y="1934.4" class="st84" width="82.2" height="63.7"/>
			<linearGradient id="SVGID_82_" gradientUnits="userSpaceOnUse" x1="3039.4143" y1="1966.293" x2="3792.5151" y2="1966.293">
				<stop  offset="0" style="stop-color:#FFE2E4"/>
				<stop  offset="1" style="stop-color:#A4B8EA"/>
			</linearGradient>
			<rect x="3499.5" y="1934.4" class="st85" width="82.2" height="63.7"/>
			<linearGradient id="SVGID_83_" gradientUnits="userSpaceOnUse" x1="3039.4146" y1="1966.293" x2="3792.5156" y2="1966.293">
				<stop  offset="0" style="stop-color:#FFE2E4"/>
				<stop  offset="1" style="stop-color:#A4B8EA"/>
			</linearGradient>
			<rect x="3614" y="1934.4" class="st86" width="82.2" height="63.7"/>
			<linearGradient id="SVGID_84_" gradientUnits="userSpaceOnUse" x1="3039.4133" y1="1966.293" x2="3792.5151" y2="1966.293">
				<stop  offset="0" style="stop-color:#FFE2E4"/>
				<stop  offset="1" style="stop-color:#A4B8EA"/>
			</linearGradient>
			<rect x="3728.6" y="1934.4" class="st87" width="82.2" height="63.7"/>
			<linearGradient id="SVGID_85_" gradientUnits="userSpaceOnUse" x1="3039.4138" y1="2059.7864" x2="3792.5159" y2="2059.7864">
				<stop  offset="0" style="stop-color:#FFE2E4"/>
				<stop  offset="1" style="stop-color:#A4B8EA"/>
			</linearGradient>
			<rect x="3041.3" y="2027.9" class="st88" width="82.2" height="63.7"/>
			<linearGradient id="SVGID_86_" gradientUnits="userSpaceOnUse" x1="3039.4138" y1="2059.7864" x2="3792.5146" y2="2059.7864">
				<stop  offset="0" style="stop-color:#FFE2E4"/>
				<stop  offset="1" style="stop-color:#A4B8EA"/>
			</linearGradient>
			<rect x="3155.8" y="2027.9" class="st89" width="82.2" height="63.7"/>
			<linearGradient id="SVGID_87_" gradientUnits="userSpaceOnUse" x1="3039.4141" y1="2059.7864" x2="3792.5151" y2="2059.7864">
				<stop  offset="0" style="stop-color:#FFE2E4"/>
				<stop  offset="1" style="stop-color:#A4B8EA"/>
			</linearGradient>
			<rect x="3270.4" y="2027.9" class="st90" width="82.2" height="63.7"/>
			<linearGradient id="SVGID_88_" gradientUnits="userSpaceOnUse" x1="3039.4141" y1="2059.7864" x2="3792.5159" y2="2059.7864">
				<stop  offset="0" style="stop-color:#FFE2E4"/>
				<stop  offset="1" style="stop-color:#A4B8EA"/>
			</linearGradient>
			<rect x="3384.9" y="2027.9" class="st91" width="82.2" height="63.7"/>
			<linearGradient id="SVGID_89_" gradientUnits="userSpaceOnUse" x1="3039.4143" y1="2059.7864" x2="3792.5151" y2="2059.7864">
				<stop  offset="0" style="stop-color:#FFE2E4"/>
				<stop  offset="1" style="stop-color:#A4B8EA"/>
			</linearGradient>
			<rect x="3499.5" y="2027.9" class="st92" width="82.2" height="63.7"/>
			<linearGradient id="SVGID_90_" gradientUnits="userSpaceOnUse" x1="3039.4146" y1="2059.7864" x2="3792.5156" y2="2059.7864">
				<stop  offset="0" style="stop-color:#FFE2E4"/>
				<stop  offset="1" style="stop-color:#A4B8EA"/>
			</linearGradient>
			<rect x="3614" y="2027.9" class="st93" width="82.2" height="63.7"/>
			<linearGradient id="SVGID_91_" gradientUnits="userSpaceOnUse" x1="3039.4133" y1="2059.7864" x2="3792.5151" y2="2059.7864">
				<stop  offset="0" style="stop-color:#FFE2E4"/>
				<stop  offset="1" style="stop-color:#A4B8EA"/>
			</linearGradient>
			<rect x="3728.6" y="2027.9" class="st94" width="82.2" height="63.7"/>
			<linearGradient id="SVGID_92_" gradientUnits="userSpaceOnUse" x1="3047.98" y1="1877.6708" x2="3709.0801" y2="1877.6708">
				<stop  offset="0" style="stop-color:#FFE2E4"/>
				<stop  offset="1" style="stop-color:#A4B8EA"/>
			</linearGradient>
			<rect x="3047" y="1866.2" class="st95" width="70.7" height="23"/>
			<linearGradient id="SVGID_93_" gradientUnits="userSpaceOnUse" x1="3063.9944" y1="1877.6708" x2="3725.0945" y2="1877.6708">
				<stop  offset="0" style="stop-color:#FFE2E4"/>
				<stop  offset="1" style="stop-color:#A4B8EA"/>
			</linearGradient>
			<rect x="3161.6" y="1866.2" class="st96" width="70.7" height="23"/>
			<linearGradient id="SVGID_94_" gradientUnits="userSpaceOnUse" x1="3080.0093" y1="1877.6708" x2="3741.1094" y2="1877.6708">
				<stop  offset="0" style="stop-color:#FFE2E4"/>
				<stop  offset="1" style="stop-color:#A4B8EA"/>
			</linearGradient>
			<rect x="3276.1" y="1866.2" class="st97" width="70.7" height="23"/>
			<linearGradient id="SVGID_95_" gradientUnits="userSpaceOnUse" x1="3096.0229" y1="1877.6708" x2="3757.124" y2="1877.6708">
				<stop  offset="0" style="stop-color:#FFE2E4"/>
				<stop  offset="1" style="stop-color:#A4B8EA"/>
			</linearGradient>
			<rect x="3390.7" y="1866.2" class="st98" width="70.7" height="23"/>
			<linearGradient id="SVGID_96_" gradientUnits="userSpaceOnUse" x1="3407.8503" y1="1656.4275" x2="3444.2461" y2="1656.4275">
				<stop  offset="0" style="stop-color:#FDE0E2"/>
				<stop  offset="1" style="stop-color:#FDBFC0"/>
			</linearGradient>
			<path class="st99" d="M3432.2,1591.4h-12.3c-6.6,0-12,5.4-12,12v105.9c0,6.6,5.4,12,12,12h12.3c6.6,0,12-5.4,12-12v-105.9
				C3444.2,1596.8,3438.9,1591.4,3432.2,1591.4z"/>
			<linearGradient id="SVGID_97_" gradientUnits="userSpaceOnUse" x1="3611.5691" y1="1656.4275" x2="3647.9648" y2="1656.4275">
				<stop  offset="0" style="stop-color:#FDE0E2"/>
				<stop  offset="1" style="stop-color:#FDBFC0"/>
			</linearGradient>
			<path class="st100" d="M3635.9,1591.4h-12.3c-6.6,0-12,5.4-12,12v105.9c0,6.6,5.4,12,12,12h12.3c6.6,0,12-5.4,12-12v-105.9
				C3648,1596.8,3642.6,1591.4,3635.9,1591.4z"/>
			<linearGradient id="SVGID_98_" gradientUnits="userSpaceOnUse" x1="3815.2878" y1="1656.4275" x2="3851.6836" y2="1656.4275">
				<stop  offset="0" style="stop-color:#FDE0E2"/>
				<stop  offset="1" style="stop-color:#FDBFC0"/>
			</linearGradient>
			<path class="st101" d="M3839.7,1591.4h-12.3c-6.6,0-12,5.4-12,12v105.9c0,6.6,5.4,12,12,12h12.3c6.6,0,12-5.4,12-12v-105.9
				C3851.7,1596.8,3846.3,1591.4,3839.7,1591.4z"/>
			<linearGradient id="SVGID_99_" gradientUnits="userSpaceOnUse" x1="3204.1316" y1="1656.4275" x2="3240.5273" y2="1656.4275">
				<stop  offset="0" style="stop-color:#FDE0E2"/>
				<stop  offset="1" style="stop-color:#FDBFC0"/>
			</linearGradient>
			<path class="st102" d="M3228.5,1591.4h-12.3c-6.6,0-12,5.4-12,12v105.9c0,6.6,5.4,12,12,12h12.3c6.6,0,12-5.4,12-12v-105.9
				C3240.5,1596.8,3235.1,1591.4,3228.5,1591.4z"/>
			<linearGradient id="SVGID_100_" gradientUnits="userSpaceOnUse" x1="3000.4128" y1="1656.4275" x2="3036.8086" y2="1656.4275">
				<stop  offset="0" style="stop-color:#FDE0E2"/>
				<stop  offset="1" style="stop-color:#FDBFC0"/>
			</linearGradient>
			<path class="st103" d="M3024.8,1591.4h-12.3c-6.6,0-12,5.4-12,12v105.9c0,6.6,5.4,12,12,12h12.3c6.6,0,12-5.4,12-12v-105.9
				C3036.8,1596.8,3031.4,1591.4,3024.8,1591.4z"/>
			<linearGradient id="SVGID_101_" gradientUnits="userSpaceOnUse" x1="3112.0381" y1="1877.6708" x2="3773.1384" y2="1877.6708">
				<stop  offset="0" style="stop-color:#FFE2E4"/>
				<stop  offset="1" style="stop-color:#A4B8EA"/>
			</linearGradient>
			<rect x="3505.2" y="1866.2" class="st104" width="70.7" height="23"/>
			<linearGradient id="SVGID_102_" gradientUnits="userSpaceOnUse" x1="3128.0522" y1="1877.6708" x2="3789.1523" y2="1877.6708">
				<stop  offset="0" style="stop-color:#FFE2E4"/>
				<stop  offset="1" style="stop-color:#A4B8EA"/>
			</linearGradient>
			<rect x="3619.8" y="1866.2" class="st105" width="70.7" height="23"/>
			<linearGradient id="SVGID_103_" gradientUnits="userSpaceOnUse" x1="3144.0662" y1="1877.6708" x2="3805.1672" y2="1877.6708">
				<stop  offset="0" style="stop-color:#FFE2E4"/>
				<stop  offset="1" style="stop-color:#A4B8EA"/>
			</linearGradient>
			<rect x="3734.4" y="1866.2" class="st106" width="70.7" height="23"/>
			<linearGradient id="SVGID_104_" gradientUnits="userSpaceOnUse" x1="3039.4138" y1="2153.2798" x2="3792.5159" y2="2153.2798">
				<stop  offset="0" style="stop-color:#FFE2E4"/>
				<stop  offset="1" style="stop-color:#A4B8EA"/>
			</linearGradient>
			<rect x="3041.3" y="2121.4" class="st107" width="82.2" height="63.7"/>
			<linearGradient id="SVGID_105_" gradientUnits="userSpaceOnUse" x1="3039.4138" y1="2153.2798" x2="3792.5146" y2="2153.2798">
				<stop  offset="0" style="stop-color:#FFE2E4"/>
				<stop  offset="1" style="stop-color:#A4B8EA"/>
			</linearGradient>
			<rect x="3155.8" y="2121.4" class="st108" width="82.2" height="63.7"/>
			<linearGradient id="SVGID_106_" gradientUnits="userSpaceOnUse" x1="3039.4141" y1="2153.2798" x2="3792.5151" y2="2153.2798">
				<stop  offset="0" style="stop-color:#FFE2E4"/>
				<stop  offset="1" style="stop-color:#A4B8EA"/>
			</linearGradient>
			<rect x="3270.4" y="2121.4" class="st109" width="82.2" height="63.7"/>
			<linearGradient id="SVGID_107_" gradientUnits="userSpaceOnUse" x1="3039.4141" y1="2153.2798" x2="3792.5159" y2="2153.2798">
				<stop  offset="0" style="stop-color:#FFE2E4"/>
				<stop  offset="1" style="stop-color:#A4B8EA"/>
			</linearGradient>
			<rect x="3384.9" y="2121.4" class="st110" width="82.2" height="63.7"/>
			<linearGradient id="SVGID_108_" gradientUnits="userSpaceOnUse" x1="3039.4143" y1="2153.2798" x2="3792.5151" y2="2153.2798">
				<stop  offset="0" style="stop-color:#FFE2E4"/>
				<stop  offset="1" style="stop-color:#A4B8EA"/>
			</linearGradient>
			<rect x="3499.5" y="2121.4" class="st111" width="82.2" height="63.7"/>
			<linearGradient id="SVGID_109_" gradientUnits="userSpaceOnUse" x1="3039.4146" y1="2153.2798" x2="3792.5156" y2="2153.2798">
				<stop  offset="0" style="stop-color:#FFE2E4"/>
				<stop  offset="1" style="stop-color:#A4B8EA"/>
			</linearGradient>
			<rect x="3614" y="2121.4" class="st112" width="82.2" height="63.7"/>
			<linearGradient id="SVGID_110_" gradientUnits="userSpaceOnUse" x1="3039.4133" y1="2153.2798" x2="3792.5151" y2="2153.2798">
				<stop  offset="0" style="stop-color:#FFE2E4"/>
				<stop  offset="1" style="stop-color:#A4B8EA"/>
			</linearGradient>
			<rect x="3728.6" y="2121.4" class="st113" width="82.2" height="63.7"/>
			<linearGradient id="SVGID_111_" gradientUnits="userSpaceOnUse" x1="3039.4138" y1="2246.7732" x2="3792.5159" y2="2246.7732">
				<stop  offset="0" style="stop-color:#FFE2E4"/>
				<stop  offset="1" style="stop-color:#A4B8EA"/>
			</linearGradient>
			<rect x="3041.3" y="2214.9" class="st114" width="82.2" height="63.7"/>
			<linearGradient id="SVGID_112_" gradientUnits="userSpaceOnUse" x1="3039.4138" y1="2246.7732" x2="3792.5146" y2="2246.7732">
				<stop  offset="0" style="stop-color:#FFE2E4"/>
				<stop  offset="1" style="stop-color:#A4B8EA"/>
			</linearGradient>
			<rect x="3155.8" y="2214.9" class="st115" width="82.2" height="63.7"/>
			<linearGradient id="SVGID_113_" gradientUnits="userSpaceOnUse" x1="3039.4141" y1="2246.7732" x2="3792.5151" y2="2246.7732">
				<stop  offset="0" style="stop-color:#FFE2E4"/>
				<stop  offset="1" style="stop-color:#A4B8EA"/>
			</linearGradient>
			<rect x="3270.4" y="2214.9" class="st116" width="82.2" height="63.7"/>
			<linearGradient id="SVGID_114_" gradientUnits="userSpaceOnUse" x1="3039.4141" y1="2246.7732" x2="3792.5159" y2="2246.7732">
				<stop  offset="0" style="stop-color:#FFE2E4"/>
				<stop  offset="1" style="stop-color:#A4B8EA"/>
			</linearGradient>
			<rect x="3384.9" y="2214.9" class="st117" width="82.2" height="63.7"/>
			<linearGradient id="SVGID_115_" gradientUnits="userSpaceOnUse" x1="3039.4143" y1="2246.7732" x2="3792.5151" y2="2246.7732">
				<stop  offset="0" style="stop-color:#FFE2E4"/>
				<stop  offset="1" style="stop-color:#A4B8EA"/>
			</linearGradient>
			<rect x="3499.5" y="2214.9" class="st118" width="82.2" height="63.7"/>
			<linearGradient id="SVGID_116_" gradientUnits="userSpaceOnUse" x1="3039.4146" y1="2246.7732" x2="3792.5156" y2="2246.7732">
				<stop  offset="0" style="stop-color:#FFE2E4"/>
				<stop  offset="1" style="stop-color:#A4B8EA"/>
			</linearGradient>
			<rect x="3614" y="2214.9" class="st119" width="82.2" height="63.7"/>
			<linearGradient id="SVGID_117_" gradientUnits="userSpaceOnUse" x1="3039.4133" y1="2246.7732" x2="3792.5151" y2="2246.7732">
				<stop  offset="0" style="stop-color:#FFE2E4"/>
				<stop  offset="1" style="stop-color:#A4B8EA"/>
			</linearGradient>
			<rect x="3728.6" y="2214.9" class="st120" width="82.2" height="63.7"/>
			<linearGradient id="SVGID_118_" gradientUnits="userSpaceOnUse" x1="3039.4138" y1="2340.2666" x2="3792.5159" y2="2340.2666">
				<stop  offset="0" style="stop-color:#FFE2E4"/>
				<stop  offset="1" style="stop-color:#A4B8EA"/>
			</linearGradient>
			<rect x="3041.3" y="2308.4" class="st121" width="82.2" height="63.7"/>
			<linearGradient id="SVGID_119_" gradientUnits="userSpaceOnUse" x1="3039.4138" y1="2340.2666" x2="3792.5146" y2="2340.2666">
				<stop  offset="0" style="stop-color:#FFE2E4"/>
				<stop  offset="1" style="stop-color:#A4B8EA"/>
			</linearGradient>
			<rect x="3155.8" y="2308.4" class="st122" width="82.2" height="63.7"/>
			<linearGradient id="SVGID_120_" gradientUnits="userSpaceOnUse" x1="3039.4141" y1="2340.2666" x2="3792.5151" y2="2340.2666">
				<stop  offset="0" style="stop-color:#FFE2E4"/>
				<stop  offset="1" style="stop-color:#A4B8EA"/>
			</linearGradient>
			<rect x="3270.4" y="2308.4" class="st123" width="82.2" height="63.7"/>
			<linearGradient id="SVGID_121_" gradientUnits="userSpaceOnUse" x1="3039.4141" y1="2340.2666" x2="3792.5159" y2="2340.2666">
				<stop  offset="0" style="stop-color:#FFE2E4"/>
				<stop  offset="1" style="stop-color:#A4B8EA"/>
			</linearGradient>
			<rect x="3384.9" y="2308.4" class="st124" width="82.2" height="63.7"/>
			<linearGradient id="SVGID_122_" gradientUnits="userSpaceOnUse" x1="3039.4143" y1="2340.2666" x2="3792.5151" y2="2340.2666">
				<stop  offset="0" style="stop-color:#FFE2E4"/>
				<stop  offset="1" style="stop-color:#A4B8EA"/>
			</linearGradient>
			<rect x="3499.5" y="2308.4" class="st125" width="82.2" height="63.7"/>
			<g>
				<linearGradient id="SVGID_123_" gradientUnits="userSpaceOnUse" x1="3404.4893" y1="1966.293" x2="3447.6072" y2="1966.293">
					<stop  offset="0" style="stop-color:#7A8FD8"/>
					<stop  offset="1" style="stop-color:#435AC2"/>
				</linearGradient>
				<path class="st126" d="M3426.1,1991.2c-1.6,0-3.1-0.8-4-2.2l-16.9-26c-1.4-2.2-0.8-5.1,1.4-6.6c2.2-1.4,5.1-0.8,6.6,1.4l12,18.5
					l13.3-31.9c1-2.4,3.8-3.6,6.2-2.6c2.4,1,3.6,3.8,2.6,6.2l-16.7,40.2c-0.7,1.6-2.2,2.7-3.9,2.9
					C3426.4,1991.2,3426.3,1991.2,3426.1,1991.2z"/>
			</g>
			<g>
				<linearGradient id="SVGID_124_" gradientUnits="userSpaceOnUse" x1="3519.0452" y1="2246.7732" x2="3562.1631" y2="2246.7732">
					<stop  offset="0" style="stop-color:#7A8FD8"/>
					<stop  offset="1" style="stop-color:#435AC2"/>
				</linearGradient>
				<path class="st127" d="M3540.7,2271.6c-1.6,0-3.1-0.8-4-2.2l-16.9-26c-1.4-2.2-0.8-5.1,1.4-6.6c2.2-1.4,5.1-0.8,6.6,1.4l12,18.5
					l13.3-31.9c1-2.4,3.8-3.6,6.2-2.6c2.4,1,3.6,3.8,2.6,6.2l-16.7,40.2c-0.7,1.6-2.2,2.7-3.9,2.9
					C3541,2271.6,3540.8,2271.6,3540.7,2271.6z"/>
			</g>
			<g>
				<linearGradient id="SVGID_125_" gradientUnits="userSpaceOnUse" x1="3748.157" y1="2059.7864" x2="3791.2751" y2="2059.7864">
					<stop  offset="0" style="stop-color:#7A8FD8"/>
					<stop  offset="1" style="stop-color:#435AC2"/>
				</linearGradient>
				<path class="st128" d="M3769.8,2084.7c-1.6,0-3.1-0.8-4-2.2l-16.9-26c-1.4-2.2-0.8-5.1,1.4-6.6c2.2-1.4,5.1-0.8,6.6,1.4l12,18.5
					l13.3-31.9c1-2.4,3.8-3.6,6.2-2.6c2.4,1,3.6,3.8,2.6,6.2l-16.7,40.2c-0.7,1.6-2.2,2.7-3.9,2.9
					C3770.1,2084.6,3770,2084.7,3769.8,2084.7z"/>
			</g>
			<g>
				<linearGradient id="SVGID_126_" gradientUnits="userSpaceOnUse" x1="3060.8215" y1="2246.7732" x2="3103.9395" y2="2246.7732">
					<stop  offset="0" style="stop-color:#7A8FD8"/>
					<stop  offset="1" style="stop-color:#435AC2"/>
				</linearGradient>
				<path class="st129" d="M3082.5,2271.6c-1.6,0-3.1-0.8-4-2.2l-16.9-26c-1.4-2.2-0.8-5.1,1.4-6.6c2.2-1.4,5.1-0.8,6.6,1.4l12,18.5
					l13.3-31.9c1-2.4,3.8-3.6,6.2-2.6c2.4,1,3.6,3.8,2.6,6.2l-16.7,40.2c-0.7,1.6-2.2,2.7-3.9,2.9
					C3082.8,2271.6,3082.6,2271.6,3082.5,2271.6z"/>
			</g>
			<g>
				<g>
					<linearGradient id="SVGID_127_" gradientUnits="userSpaceOnUse" x1="3174.7224" y1="2059.7864" x2="3219.1504" y2="2059.7864">
						<stop  offset="0" style="stop-color:#FE958F"/>
						<stop  offset="1" style="stop-color:#F77C77"/>
					</linearGradient>
					<path class="st130" d="M3214.4,2082c-1.2,0-2.4-0.5-3.4-1.4l-34.9-34.9c-1.9-1.9-1.9-4.9,0-6.7c1.9-1.9,4.9-1.9,6.7,0
						l34.9,34.9c1.9,1.9,1.9,4.9,0,6.7C3216.8,2081.5,3215.6,2082,3214.4,2082z"/>
				</g>
				<g>
					
						<linearGradient id="SVGID_128_" gradientUnits="userSpaceOnUse" x1="4061.8818" y1="2463.5515" x2="4106.3091" y2="2463.5515" gradientTransform="matrix(0 1 -1 0 5660.4878 -2024.3092)">
						<stop  offset="0" style="stop-color:#FE958F"/>
						<stop  offset="1" style="stop-color:#F77C77"/>
					</linearGradient>
					<path class="st131" d="M3179.5,2082c-1.2,0-2.4-0.5-3.4-1.4c-1.9-1.9-1.9-4.9,0-6.7l34.9-34.9c1.9-1.9,4.9-1.9,6.7,0
						c1.9,1.9,1.9,4.9,0,6.7l-34.9,34.9C3181.9,2081.5,3180.7,2082,3179.5,2082z"/>
				</g>
			</g>
			<g>
				<g>
					<linearGradient id="SVGID_129_" gradientUnits="userSpaceOnUse" x1="3289.2786" y1="2340.2666" x2="3333.7063" y2="2340.2666">
						<stop  offset="0" style="stop-color:#FE958F"/>
						<stop  offset="1" style="stop-color:#F77C77"/>
					</linearGradient>
					<path class="st132" d="M3328.9,2362.5c-1.2,0-2.4-0.5-3.4-1.4l-34.9-34.9c-1.9-1.9-1.9-4.9,0-6.7c1.9-1.9,4.9-1.9,6.7,0
						l34.9,34.9c1.9,1.9,1.9,4.9,0,6.7C3331.4,2362,3330.2,2362.5,3328.9,2362.5z"/>
				</g>
				<g>
					
						<linearGradient id="SVGID_130_" gradientUnits="userSpaceOnUse" x1="4342.3623" y1="2348.9956" x2="4386.7896" y2="2348.9956" gradientTransform="matrix(0 1 -1 0 5660.4878 -2024.3092)">
						<stop  offset="0" style="stop-color:#FE958F"/>
						<stop  offset="1" style="stop-color:#F77C77"/>
					</linearGradient>
					<path class="st133" d="M3294,2362.5c-1.2,0-2.4-0.5-3.4-1.4c-1.9-1.9-1.9-4.9,0-6.7l34.9-34.9c1.9-1.9,4.9-1.9,6.7,0
						c1.9,1.9,1.9,4.9,0,6.7l-34.9,34.9C3296.5,2362,3295.3,2362.5,3294,2362.5z"/>
				</g>
			</g>
			<g>
				<g>
					<linearGradient id="SVGID_131_" gradientUnits="userSpaceOnUse" x1="3632.9463" y1="2153.2798" x2="3677.374" y2="2153.2798">
						<stop  offset="0" style="stop-color:#FE958F"/>
						<stop  offset="1" style="stop-color:#F77C77"/>
					</linearGradient>
					<path class="st134" d="M3672.6,2175.5c-1.2,0-2.4-0.5-3.4-1.4l-34.9-34.9c-1.9-1.9-1.9-4.9,0-6.7c1.9-1.9,4.9-1.9,6.7,0
						l34.9,34.9c1.9,1.9,1.9,4.9,0,6.7C3675,2175,3673.8,2175.5,3672.6,2175.5z"/>
				</g>
				<g>
					
						<linearGradient id="SVGID_132_" gradientUnits="userSpaceOnUse" x1="4155.3755" y1="2005.3279" x2="4199.8027" y2="2005.3279" gradientTransform="matrix(0 1 -1 0 5660.4878 -2024.3092)">
						<stop  offset="0" style="stop-color:#FE958F"/>
						<stop  offset="1" style="stop-color:#F77C77"/>
					</linearGradient>
					<path class="st135" d="M3637.7,2175.5c-1.2,0-2.4-0.5-3.4-1.4c-1.9-1.9-1.9-4.9,0-6.7l34.9-34.9c1.9-1.9,4.9-1.9,6.7,0
						c1.9,1.9,1.9,4.9,0,6.7l-34.9,34.9C3640.1,2175,3638.9,2175.5,3637.7,2175.5z"/>
				</g>
			</g>
		</g>
		<g>
			<g>
				<linearGradient id="SVGID_133_" gradientUnits="userSpaceOnUse" x1="2810.3474" y1="2432.2053" x2="3150.5444" y2="2432.2053">
					<stop  offset="0" style="stop-color:#FFFBFC"/>
					<stop  offset="1" style="stop-color:#FFE2E4"/>
				</linearGradient>
				<path class="st136" d="M3119.1,2544.3c-16.5-25.2-41.7-53.4-70.4-75.8c-21.6-17.3-45.4-30.9-59.1-36.3
					c13.7-5.4,37.4-19,59.1-36.3c28.8-22.3,54-50.6,70.4-75.8c16.9-25.5,25-47.9,28.8-65.5c3.7-18.1,3.1-31.4,0.4-51
					c-111.9,0-223.9,0-335.8,0c-2.7,19.6-3.3,32.9,0.4,51c3.8,17.6,11.9,40,28.8,65.5c16.5,25.2,41.7,53.4,70.5,75.7
					c21.6,17.3,45.4,30.9,59.1,36.3c-13.7,5.4-37.4,19-59.1,36.3c-28.8,22.3-54,50.6-70.5,75.7c-16.9,25.5-25,47.9-28.8,65.5
					c-3.7,18.1-3.1,31.4-0.4,51c111.9,0,223.9,0,335.8,0c2.7-19.6,3.3-32.9-0.4-51C3144.1,2592.2,3136,2569.7,3119.1,2544.3z"/>
			</g>
			<g>
				<linearGradient id="SVGID_134_" gradientUnits="userSpaceOnUse" x1="2777.9509" y1="2172.5591" x2="3182.9412" y2="2172.5591">
					<stop  offset="0" style="stop-color:#435AC2"/>
					<stop  offset="1" style="stop-color:#0F24A4"/>
				</linearGradient>
				<path class="st137" d="M3179.6,2203.6h-398.4c-1.8,0-3.3-1.5-3.3-3.3v-55.6c0-1.8,1.5-3.3,3.3-3.3h398.4c1.8,0,3.3,1.5,3.3,3.3
					v55.6C3182.9,2202.2,3181.5,2203.6,3179.6,2203.6z"/>
			</g>
			<g>
				<linearGradient id="SVGID_135_" gradientUnits="userSpaceOnUse" x1="2777.9509" y1="2691.8516" x2="3182.9412" y2="2691.8516">
					<stop  offset="0" style="stop-color:#435AC2"/>
					<stop  offset="1" style="stop-color:#0F24A4"/>
				</linearGradient>
				<path class="st138" d="M3179.6,2722.9h-398.4c-1.8,0-3.3-1.5-3.3-3.3v-55.6c0-1.8,1.5-3.3,3.3-3.3h398.4c1.8,0,3.3,1.5,3.3,3.3
					v55.6C3182.9,2721.5,3181.5,2722.9,3179.6,2722.9z"/>
			</g>
			<g>
				<linearGradient id="SVGID_136_" gradientUnits="userSpaceOnUse" x1="2812.53" y1="2614.7097" x2="3148.3616" y2="2614.7097">
					<stop  offset="0" style="stop-color:#FFC1C2"/>
					<stop  offset="1" style="stop-color:#FE958F"/>
				</linearGradient>
				<path class="st139" d="M2812.5,2660.8c111.9,0,223.9,0,335.8,0c1-7.3-108.7-92.1-167.9-92.1
					C2921.2,2568.7,2811.5,2653.5,2812.5,2660.8z"/>
			</g>
			<g>
				<linearGradient id="SVGID_137_" gradientUnits="userSpaceOnUse" x1="2865.7283" y1="2392.2498" x2="3095.1265" y2="2392.2498">
					<stop  offset="0" style="stop-color:#FFC1C2"/>
					<stop  offset="1" style="stop-color:#FE958F"/>
				</linearGradient>
				<path class="st140" d="M2990.7,2432.7c-0.4-0.2-0.8-0.3-1.2-0.5c13.7-5.4,37.4-19,59.1-36.3c17.1-13.3,33-28.7,46.5-44.3
					c-69.3,33.1-160.1,33.1-229.4,0c13.5,15.6,29.4,31,46.5,44.3c21.6,17.3,45.4,30.9,59.1,36.3c-0.4,0.1-0.8,0.3-1.2,0.5
					C2977,2432.9,2983.9,2432.9,2990.7,2432.7z"/>
			</g>
		</g>
	</g>
</g>
</svg>
